<svg xmlns="http://www.w3.org/2000/svg" viewBox="0 0 55.77 61.17"><defs><style>.cls-1{fill:#325f29;}</style></defs><title>Recurso 1</title><g id="Capa_2" data-name="Capa 2"><g id="Capa_1-2" data-name="Capa 1"><path class="cls-1" d="M54.09,17.56a4.43,4.43,0,0,0-4.55-2.1c.24-1.48-1.17-3-2.59-3.43A5.31,5.31,0,0,0,43,12.7c-.08-.19-.15-.37-.25-.56-1.24-2.29-3.26-3.9-5.64-3.39.87-3.82-3.91-7.3-6.72-4.27.06-2-1.78-4.48-3.86-4.48-2.65,0-5.07,2.24-6.41,4.32-.12.19.18.44.32.25a9.88,9.88,0,0,1,4.71-3.44,2.79,2.79,0,0,1,3.44,1.22c.5.87.73,1.84,1.23,2.69a.23.23,0,0,0,.12.1.41.41,0,0,0,.58.36c2.76-1.62,7.06.17,5.15,3.89a.56.56,0,0,0,.75.78c1.53-.86,4.77.87,5.26,2.56a4.74,4.74,0,0,1-1.81,4.85.58.58,0,0,0,.24,1l2.47,1.57c.89,1.8.58,3.17-.94,4.13-1.52,1.58-2.86,1.6-4.9.66a.24.24,0,0,0-.29.37,4.53,4.53,0,0,0,1.75,1.26c.17,2.06-.18,4.21-2.25,5.24a3.92,3.92,0,0,1-2.49.38A.5.5,0,0,0,33,32a6.1,6.1,0,0,1-2.69-1.87.39.39,0,0,0-.49-.08.2.2,0,0,0-.31.06c-.44,1-2.07,2.08-3,2.57a4.73,4.73,0,0,1-4.58-.22,5.83,5.83,0,0,1-2.86-2.7c-.59-1.37,0-2.2.32-3.47a.4.4,0,0,0,0-.19,1.52,1.52,0,0,0,.19-.28.34.34,0,0,0-.53-.42c-.45.39-2.18-1.25-2.41-1.55A3.84,3.84,0,0,1,16,20.94a4.7,4.7,0,0,1,2.46-3.14l.17,0a.43.43,0,0,0,.46-.44c.19-.14.38-.27.57-.42.34-.26,0-.75-.38-.68a4.53,4.53,0,0,0-1.16.39,4.48,4.48,0,0,1-3-4.58c.28-2.87,3.07-4.25,5.67-3.56.29.07.65-.27.44-.56a7,7,0,0,1-.94-3A.18.18,0,0,0,20,5a2.58,2.58,0,0,0,.14,2.69,5.55,5.55,0,0,0-6,4,5.2,5.2,0,0,0-.15,1.6,3.32,3.32,0,0,0-3.18,2.45C9.2,14.26,6.86,13.58,5,15.28A6.58,6.58,0,0,0,3.7,22c-5.3,1.53-4.7,8.79.46,10.17C3,34.3,2.11,36.73,3.68,39c1.43,2,3.94,2.51,6.24,2,.88,1.49,3,1.73,4.56,1a4.13,4.13,0,0,0,1.74-1.47l.08.08c3.14,2.11,6.92,4.18,8.7,7.69s1.53,7.21,2,10.9a.38.38,0,0,0,.37.35.28.28,0,0,0,.13.24C31,62.35,38.93,61.29,40.67,57a.35.35,0,0,0,.29-.42c-.49-3.37-2.46-6.24-2.4-9.79.07-4.53,2.72-7.13,5.48-10.27a4.87,4.87,0,0,0,6,1.19c1.92-.88,4.54-4.5,2.84-6.29,3.83-1.15,3.8-6.5.37-8.21A4.61,4.61,0,0,0,54.09,17.56ZM33.78,33.16A5.88,5.88,0,0,0,37.28,32a4.32,4.32,0,0,0,.83,1.66,27.52,27.52,0,0,0-2,2.32c-.49.58-1,1.15-1.48,1.72-.13-.54-.32-1.08-.41-1.57C34.05,35.14,34,34.14,33.78,33.16Zm-7.85.93a5.64,5.64,0,0,0,1.15-.58c.23,1.2.58,2.37.83,3.56s.09,2.18.35,3.22c-2.78-.87-4.47-3.16-6.89-4.64a5,5,0,0,0,.92-1.77A4.78,4.78,0,0,0,25.93,34.09ZM14.5,40.5c-1.46,1.08-2.48.79-3.83.08a.42.42,0,0,0-.4-.57c-1.63.07-4.4.31-5.37-1.31C3.6,36.52,4.3,34,5.4,32A.53.53,0,0,0,5,31.25c-5.31-.72-4.88-7.35-.22-8.54a.48.48,0,0,0-.23-.94l-.11,0c-.61-3.77,2.32-9,6.32-4.8a.47.47,0,0,0,.79-.2,4.16,4.16,0,0,1,2.61-2.69A4.88,4.88,0,0,0,17,17.42a6.25,6.25,0,0,0-2.4,5.44,4.44,4.44,0,0,0,2.6,3.3,3.75,3.75,0,0,0,1.12.39,3.6,3.6,0,0,0-.45,2.84,6.27,6.27,0,0,0,3.54,4.06l.13.07a3.38,3.38,0,0,1-4.76,2.33c-.25-.11-.66,0-.63.35C16.25,38.07,16,39.36,14.5,40.5Zm29-4.78c-6,5.09-7.94,14.08-3.29,20.85-1.69,1.23-3,2.41-5.15,2.91s-5.1.75-7.14-.17a.54.54,0,0,0,.07-.19c.39-3.82-.16-8.55-2.13-11.9s-5.65-5.58-9.1-7.29l-.13,0a5.71,5.71,0,0,0,.49-2.72,3.33,3.33,0,0,0,3.77-.94,17.54,17.54,0,0,0,3.89,3.66,4.94,4.94,0,0,0,4,1.31.41.41,0,0,0,.24-.6,12.14,12.14,0,0,0-.33-3.44,19.55,19.55,0,0,0-.77-4.24,7.46,7.46,0,0,0,1.79-2.11A4.84,4.84,0,0,0,32.63,33a15,15,0,0,0,.42,3.15,7.85,7.85,0,0,0,.81,2.72.43.43,0,0,0,.29.32l0,0a.29.29,0,0,0,.48-.12l0-.14a18.66,18.66,0,0,0,4.16-4.65,3.91,3.91,0,0,0,4,.23A7.6,7.6,0,0,0,43.45,35.72ZM51.79,23a.57.57,0,0,0,.23.94,3.25,3.25,0,0,1,2.2,4.88,4.93,4.93,0,0,1-2.37,2l-.09,0c-.23-.08-.38.19-.3.38,2.25,5.25-4.48,7.33-7,4.81a.42.42,0,0,0-.43-.58,3.18,3.18,0,0,1-.43-1.52.56.56,0,0,0-.82-.5A3.28,3.28,0,0,1,38,31.41s0,0,0-.05a4.89,4.89,0,0,0,1.3-4.59c3.81.2,7.12-6,2.09-8.87,1.38-1.12,2.2-2.4,2-4a3,3,0,0,1,.43-.36A3.46,3.46,0,0,1,46,13a2.67,2.67,0,0,1,2.32,1.41,4,4,0,0,1,.09,1.71.27.27,0,0,0,.05.38.33.33,0,0,0,.47.13c1.35.16,2.56.09,3.6,1.23C54.11,19.52,53.54,21.65,51.79,23Z"/></g></g></svg>