<svg xmlns="http://www.w3.org/2000/svg" viewBox="0 0 271 417"><defs><style>.cls-1{fill:#4f9434;}.cls-2{fill:#fff;}.cls-3{fill:#315e29;}</style></defs><title>Card Background 1</title><g id="Capa_2" data-name="Capa 2"><g id="Capa_1-2" data-name="Capa 1"><g id="Capa_2-2" data-name="Capa 2"><g id="Capa_1-2-2" data-name="Capa 1-2"><path class="cls-1" d="M263,417H8a8,8,0,0,1-8-8V208.5a111.38,111.38,0,0,1,43.7-25.62,113.18,113.18,0,0,1,41-4.32c48.81,3.37,63.9,32.4,104.4,41.4,18.1,4,45.12,4.89,81.86-11.46V409A8,8,0,0,1,263,417Z"/></g></g><path class="cls-2" d="M263,0H8A8,8,0,0,0,0,8V208.5a111.32,111.32,0,0,1,43.7-25.62,113.2,113.2,0,0,1,41-4.32c48.81,3.36,63.9,32.4,104.4,41.4,18.1,4,45.12,4.89,81.86-11.46V8A8,8,0,0,0,263,0Z"/><path class="cls-3" d="M144.35,162.37c-2.15-.81-4.26.62-5.34,2.58a7,7,0,0,0-.55,1.37c-.39,1.17.36.61-1,.91s-2.47.36-3.55,1.26a4.39,4.39,0,0,0-1.46,2.45c-.35,1.28-.6,1.16-1.57,2.08a4.11,4.11,0,0,0-.34,5.74c-1.23.45-1.42,2-1.28,3.27a7.5,7.5,0,0,0,.93,2.88c.59,1.09.62.47.29,1.72-1.17,4.5,2.57,7.33,6.87,7.2.06,3,3.17,4.91,6,4.43.5,1.21,1.16,2.41,2.59,2.61a6,6,0,0,0,4.64-1.79c-.57,2.26-.42,5.22,2.13,6.16.63.23,1.11.13,1.68.49.2.13.3.56.48.74a4,4,0,0,0,2.94,1.38,3.56,3.56,0,0,0,1.71-.49,13.79,13.79,0,0,0,1.17-1c.35,0,1.24.78,1.74.92,2.71.8,4.71-1.7,5.49-4,2.77,1.9,5.85-.12,7.05-2.85.73-1.67,2.63-1.52,3.85-3a4.16,4.16,0,0,0,.85-4c1.62-.44,2.94-2.37,3.48-3.84a4.76,4.76,0,0,0-1.1-4.77s0,0-.07,0c.68-2,.3-4.13-2.11-4.77a4.12,4.12,0,0,0,.84-3.46,4.38,4.38,0,0,0-1.35-2.13c-.68-.61-2.5-1-2.89-1.62s-.05-2.29-.43-3.2a5.19,5.19,0,0,0-1.87-2.3,5.05,5.05,0,0,0-5.06-.4,3,3,0,0,0-2-2.59,4.61,4.61,0,0,0-2.21-.13c-1.1.11-.93,0-1.7-.63a4.5,4.5,0,0,0-6.33,1c-.45-2.82-3.58-4.77-6-2.72-.59-1.38-1.63-2.66-3.31-2.5C146.07,159.53,144.39,160.89,144.35,162.37Zm-1.06,11.38a12.12,12.12,0,0,1,5-4.91,11.76,11.76,0,0,1,2.76,3c-.17.4-.25.86-.39,1.27s-.54,1-.77,1.57c-.06.13.08.23.2.17a3.6,3.6,0,0,0,1.29-1.39c.09-.15.18-.32.26-.49.48,1.08.81,2.22,1.38,3.26a4.4,4.4,0,0,0,3.51,2.67c.23,0,.38-.31.14-.41-2.89-1.25-3.23-4.06-4.54-6.54a9.57,9.57,0,0,0-2.07-2.68,11.79,11.79,0,0,1,3.4.85,33.18,33.18,0,0,1,4.26,3q.38.24.75.45a.17.17,0,0,0,0,.1c.29,1.23,1.18,3.1,2.55,3.4.12,0,.27-.12.21-.25a9.38,9.38,0,0,0-1.11-1.42,6.72,6.72,0,0,1-.82-1.42,5.71,5.71,0,0,0,3.87.36c.22-.06.14-.43-.07-.38-2.76.54-4.6-1.36-6.55-3,.27,0,.55,0,.83,0a15,15,0,0,0,1.75.18.18.18,0,0,0,.11-.31,4.12,4.12,0,0,0-3.37-.39,9,9,0,0,0-.74-.52,9.79,9.79,0,0,0-5.48-1.69,16.36,16.36,0,0,1,5.67-1.31,13.17,13.17,0,0,1,11.79,5.37,17.36,17.36,0,0,1,2.68,5.31,35.76,35.76,0,0,1,.82,5.62,6.84,6.84,0,0,0-3.13,1.3c-.19-1.27-1.12-2.82-2.4-3.09a3.53,3.53,0,0,0-3.32,1.65,4.54,4.54,0,0,0-3.15-2.9,3.74,3.74,0,0,0-3.35,1.82,4.23,4.23,0,0,0-4.46-2.37,4.72,4.72,0,0,0-3.1,3,3.49,3.49,0,0,0-4.17-.23,4,4,0,0,0-1.6,2A15.32,15.32,0,0,1,143.29,173.75ZM142.58,186c.27-2.59,2.55-4.05,5-2.42a.36.36,0,0,0,.58-.21c.86-.9,1-2.35,2.4-2.83,2.07-.71,3.14,1.21,4.42,2.33a.27.27,0,0,0,.39,0c.5-.31.73-.86,1.19-1.24a2.31,2.31,0,0,1,2.39-.46c1.26.57,1.5,2.06,2.56,2.78a.27.27,0,0,0,.42-.16c.81-.77,1.74-1.85,3-1.56s1.5,1.8,2.08,2.75a.23.23,0,0,0,.28.1.2.2,0,0,0,.25,0c1.59-1.26,4.94-2.29,4.5,1.41a10.73,10.73,0,0,1-1.52,3.57,22.49,22.49,0,0,1-5,5.93,15.53,15.53,0,0,1-7.53,3.75,10.89,10.89,0,0,1-5.33-.55,29.51,29.51,0,0,1-3.09-2.13,12.74,12.74,0,0,0,8.62-1,15.15,15.15,0,0,0,3.14-2.08.15.15,0,0,0,.09.1,6.23,6.23,0,0,1,1.66,1.46c.36.37.84.84,1.4.73a.15.15,0,0,0,.07-.22,4.1,4.1,0,0,0-.71-.53,8.93,8.93,0,0,1-.73-.65,4.67,4.67,0,0,0-1.43-1.07,11.06,11.06,0,0,1,1.48-.47c.88-.21,1.79-.09,2.66-.32.18-.05.12-.28,0-.33a5.48,5.48,0,0,0-3.47.41c1.61-1.53,3-3.29,4.56-4.91a.18.18,0,0,0-.19-.29c-2.91,1.2-4.42,4.83-7,6.64a12.21,12.21,0,0,1-5.71,2.15,9.1,9.1,0,0,0,4.1-3.57,8.06,8.06,0,0,0,1-4.2,6,6,0,0,0,.58-.75c.16-.25.44-.59.38-.9a.16.16,0,0,0-.21-.14c-.28.11-.42.46-.59.7l-.17.23c0-1.26-.13-2.52-.07-3.75a.26.26,0,0,0-.49-.1c-.92,2.13,0,4.62-.47,6.85a7.17,7.17,0,0,1-.73,2,6.61,6.61,0,0,0-1.46-3.25c-.48-.64-1-1.21-1.45-1.89a18.79,18.79,0,0,1-1-2.48c0-.12-.26-.17-.31,0-.61,1.66.66,3.23,1.92,4.77-.92-.27-1.85-.49-2.77-.77a4.49,4.49,0,0,1-1.86-1.09,12.17,12.17,0,0,0-1-1.14.18.18,0,0,0-.29.1c-.09,1.09.93,2.05,1.81,2.54a12.65,12.65,0,0,0,4.62,1.13.17.17,0,0,0,.1,0,6.33,6.33,0,0,1,1.38,2.52.05.05,0,0,0,0,0,7.88,7.88,0,0,1-5,3.14.27.27,0,0,0-.17.16,15.51,15.51,0,0,1-3.34-.54,23.19,23.19,0,0,1-3.31-3.68c-1.23-1.68-2.61-3.59-2.71-5.74a.48.48,0,0,0,.09-.6Zm34.73-4.27a.36.36,0,0,0-.46.45c.57,1.64.77,3.36-.48,4.77a7.45,7.45,0,0,1-4,1.89c.72-1.53,1.13-3.11.62-4.37a2,2,0,0,0-1.79-1.31,8.65,8.65,0,0,0,.23-1.35c1.58-1.45,4.62-1.11,5.61-3.21a.17.17,0,0,0-.25-.21,19.4,19.4,0,0,1-3.71,1.69,5.35,5.35,0,0,0-1.61,1,14,14,0,0,0-1-5.12,8.76,8.76,0,0,1,1-1.07,7.56,7.56,0,0,1,1.91-.84c.11-.05.16-.25,0-.31-1.14-.41-2.41.64-3.19,1.66a19.1,19.1,0,0,0-1.58-3,6,6,0,0,1,1.36-1.23,9.71,9.71,0,0,0,2.09-1.11.17.17,0,0,0-.1-.27,4.59,4.59,0,0,0-3.81,1.93,16.91,16.91,0,0,0-1.12-1.43A13.7,13.7,0,0,0,165.8,169c.21-.27.41-.55.59-.83s.48-.62.37-1a.2.2,0,0,0-.25-.12c-.3.08-.43.48-.57.73a9.29,9.29,0,0,1-.53.85,13.82,13.82,0,0,0-8-3,4.23,4.23,0,0,1,2-1.69,3.21,3.21,0,0,1,3.86,1.48.51.51,0,0,0,.58.2c1.81-.69,4.08-.68,4.54,1.73a.36.36,0,0,0,.4.32.38.38,0,0,0,.37.11c3.62-.83,7.19,1.22,6.12,5.43a.49.49,0,0,0,.38.56c1.5.4,3.19,1,4,2.46C181,178.82,179,180.38,177.31,181.75Zm.6,6.1a.41.41,0,0,0-.24.5c1,2.54-.91,4.72-3.47,4.67a.21.21,0,0,0-.22.12,6.12,6.12,0,0,1-.66,1.72,3.89,3.89,0,0,1-1.95,1.15,5.28,5.28,0,0,1-4.16-.31,20.91,20.91,0,0,0,2.27-2.39,25.79,25.79,0,0,0,2.56-3.76c2.06-.11,4.34-.91,5.46-2.73a4.72,4.72,0,0,0,.15-4.72,8.4,8.4,0,0,0,1.85-1.59.34.34,0,0,0,.09.08C183,182.78,180.76,186.55,177.91,187.85Zm-26.53,11.74a9.22,9.22,0,0,0,6.66,1c-.06.29-.12.57-.16.87s-.16.71,0,1a.22.22,0,0,0,.3.05c.29-.16.36-.64.41-.94a4.86,4.86,0,0,0,0-1.08,15.56,15.56,0,0,0,3-1,3.21,3.21,0,0,0,.21.85,1.85,1.85,0,0,0,.45.93.2.2,0,0,0,.3-.07,1.42,1.42,0,0,0,0-1,2.15,2.15,0,0,0-.44-.91,22.49,22.49,0,0,0,3.56-2.21c.33.55.77,1,1.07,1.6a5.15,5.15,0,0,0,.87,1.53.15.15,0,0,0,.23-.05c.38-1.11-.72-2.8-1.67-3.47l.55-.46a6.18,6.18,0,0,0,5.52.55c1.26-.42,3-2,2.24-3.42a3.35,3.35,0,0,0,3.86-1.67,4.61,4.61,0,0,0,.43-2.34c0-1.13.1-.86,1.08-1.53a5.66,5.66,0,0,0,1.84-2.19c.26,1.33,1.1,2.45.51,3.92a8,8,0,0,1-3.12,3.46L179,193a.31.31,0,0,0-.18.35c.45,2.88-1.23,5-4,5.56a.25.25,0,0,0-.17.2c-.27,3.85-3.69,4.84-6.9,3.61a.2.2,0,0,0-.24.31l0,0c-1.22,1.67-4.3,5.95-6.4,2.38a.34.34,0,0,0-.58,0c-1.5,2.66-4.79,1.73-5.67-.6a.37.37,0,0,0-.47-.23C150.92,205.4,151.05,201.63,151.38,199.59Zm-1.17-36.74a.44.44,0,0,0,.75.15,2.53,2.53,0,0,1,4.19.35,4.78,4.78,0,0,1,.61,2.26c-.43,0-.86,0-1.29.07a17.58,17.58,0,0,0-7.69,2.64,6.1,6.1,0,0,1-.84-1,4.92,4.92,0,0,0-.77-1,.16.16,0,0,0-.25.09c-.3.95.55,1.84,1.37,2.28a12.38,12.38,0,0,0-4.08,4.58,17.14,17.14,0,0,0-1.61,8.64,5.64,5.64,0,0,0-3.69.77.14.14,0,0,0,.09.25c1.21-.14,2.44-.32,3.66-.37a12.69,12.69,0,0,0,.9,3.5,6.66,6.66,0,0,0,.1,1.73h0a22.82,22.82,0,0,0-2.72.5,3.53,3.53,0,0,0-2.17,1,.21.21,0,0,0,.11.33,4,4,0,0,0,2.18-.41c.9-.28,1.81-.54,2.72-.78l.06,0a12,12,0,0,0,1.89,3.69,5.68,5.68,0,0,0-2.82,1.95c-.09.14.08.3.23.25a6,6,0,0,0,1.47-.88,14.26,14.26,0,0,1,1.45-.87c.64.84,1.34,1.63,2,2.37a22,22,0,0,0,3.83,3.56l0,.06.09.07c-2.16,1.1-4.76,2.78-6-.93a.44.44,0,0,0-.45-.3c-3,.45-4.77-1.17-5.58-4a.28.28,0,0,0-.44-.17h0a12.64,12.64,0,0,1-4-1c-2.34-1.22-3.83-4.14-1.83-6.4a.28.28,0,0,0,0-.37c-1.72-1.6-2.37-4.54-.28-6.09a.38.38,0,0,0-.12-.67c-1.1-2.25-.84-5,1.88-5.93a.48.48,0,0,0,.32-.47c-.56-3.41,2.82-4.31,5.42-4.06a.48.48,0,0,0,.56-.49c-.37-2.66,2.32-5.38,5-4.53.25.07.41-.15.41-.37a4,4,0,0,1,1.5-2C148.84,159.49,149.76,161.36,150.21,162.85Z"/><path class="cls-3" d="M139.34,176.94c.35,0,.49.55.13.63a5.25,5.25,0,0,1-2.23.06c-.57-.12-1.42-.35-1.63-.95a.17.17,0,0,1,.11-.22,3.83,3.83,0,0,1,1.58.33A5.85,5.85,0,0,0,139.34,176.94Z"/><path class="cls-3" d="M139.55,171a9.09,9.09,0,0,0,1.82.76.34.34,0,0,1-.13.66,6.78,6.78,0,0,1-2.06-.65c-.53-.27-1.27-.67-1.44-1.28a.22.22,0,0,1,.25-.28A4.6,4.6,0,0,1,139.55,171Z"/><path class="cls-3" d="M4.56,163.94a93.68,93.68,0,0,1,10.6-1.21c-5.26,2.64-9.07,8.4-8.85,14.35.24,6.62,6.62,12,12.75,13.37,4.07.9,7.74-.17,11.28-2.19s8.05-2.49,11.54-4.8c6.41-4.25,6.2-14.79,3.28-21-3.33-7.07-11.41-7.56-17.85-5a34,34,0,0,1,5.93-7.39c.24-.23.14-.76-.27-.68-3.82.73-9,4.22-10.14,8.49a16.54,16.54,0,0,0-4.39-6.7c-.92-.85-3-2.71-4.32-2.67s-2.41,1.32-3.23,2.19a.48.48,0,0,0,.19.73,19.71,19.71,0,0,1,10.46,9.4A14.54,14.54,0,0,0,4.18,163,.53.53,0,0,0,4.56,163.94Zm11.49.22a18.07,18.07,0,0,0-6,8.87c-.18.53.43,1.2.94.75,3.48-3.1,7-6.16,10.68-9a45.61,45.61,0,0,1,4.85,10.34c.2.69,1.13.31,1.13-.29a44.25,44.25,0,0,0-1.91-11.93,27.75,27.75,0,0,1,13,1.8c.33.14.74-.29.46-.59-3.41-3.63-8.27-4.69-13.08-4.4.2-.43.4-.86.62-1.28,4.6-1.46,10.07-2.12,14.16,1,3.69,2.77,5.08,8,5,12.39,0,5-2.07,9.62-7,11.53-3.14,1.22-6.15,1.83-9.1,3.52-4.61,2.64-9.31,3.52-14.21,1-3.67-1.88-7.3-5.1-7.85-9.39C7.11,172.32,11.11,167.19,16.05,164.16ZM6.3,162.63a14.6,14.6,0,0,1,14.54-1.47l.53.17a10.42,10.42,0,0,1,1.49.5s0,0,0-.06a.28.28,0,0,0,0-.13,21,21,0,0,0-10.74-10.77c1.58-1.44,2.64-1.31,4.46.09a16.31,16.31,0,0,1,2.83,2.74c.55.68,1,1.44,1.45,2.15A15.75,15.75,0,0,1,23,160.69c.37-.86,1.62-3,1.74-3.22a16.65,16.65,0,0,1,1.56-2.64A14.73,14.73,0,0,1,31.19,151a34.66,34.66,0,0,0-6.33,9.11.52.52,0,0,0,.53.72c4-.19,7.8.28,11.13,2.25a26.46,26.46,0,0,0-11.58-1.25.59.59,0,0,0-.47.79,46.5,46.5,0,0,1,1.7,8.48,22.12,22.12,0,0,0-3.75-6.9,7.51,7.51,0,0,0-.72-.54c-.06,0-.22-.1-.37-.18h0A86.17,86.17,0,0,0,12.08,171a18.14,18.14,0,0,1,8.11-8.16c.3-.17.34-.72-.09-.76A57.33,57.33,0,0,0,6.3,162.63Z"/><path class="cls-3" d="M17.85,186.45a10.58,10.58,0,0,1,1.94-.48A7.68,7.68,0,0,0,22,185a.38.38,0,0,1,.45.61c-1.06,1-3.14,2.08-4.56,1.23A.22.22,0,0,1,17.85,186.45Z"/><path class="cls-3" d="M15.12,184c.68-.27,1.33-.11,1.9-.68s1.17.11.77.61c-.61.76-1.85,1.48-2.78.87A.47.47,0,0,1,15.12,184Z"/><path class="cls-3" d="M41.35,173.31c.16-.36.5-.45.82-.62a2.07,2.07,0,0,0,.72-.69c.29-.46,1.07,0,.82.49a2.94,2.94,0,0,1-.91,1.07c-.38.27-.93.53-1.34.17A.37.37,0,0,1,41.35,173.31Z"/><path class="cls-3" d="M41.62,175.61a.34.34,0,0,1,.08.67A.34.34,0,0,1,41.62,175.61Z"/><path class="cls-3" d="M255.53,198.9c-.79-4.41,3.39-14.63-2.24-16.75.31-.27.62-.53,1-.78.72-.53,2.64-1.25,3.56-2.18a.27.27,0,0,0,.44-.1c1.89-4,.5-8.18-2.81-10.88s-7.86-3.94-10.16-7.63a.53.53,0,0,0-1,.19c-.35,4.13-.13,9,2.33,12.57,2,2.89,6.27,4.75,9.66,5.84l-.58.32a17.67,17.67,0,0,0-2.46,1.66c-.27.23-.55.47-.83.73a8,8,0,0,0-1.53-.14.45.45,0,0,0-.27.1c-2.55-.15-4.82,1.48-6.39,3.54-1,1.34-1.69,2.93-2.81,4.18-1.47,1.63-3.51,2.46-5.35,3.56a13.29,13.29,0,0,0-4.89,17.93c3.74,6.59,12.26,8.53,18.8,5a14.42,14.42,0,0,0,6.46-7.49C257.67,205.1,256.14,202.32,255.53,198.9Zm-7.65-26.13a17,17,0,0,1-2.65-10.3,9.39,9.39,0,0,0,2.41,2.68,52.93,52.93,0,0,0,4.74,2.88c3.59,2.13,5.63,4.65,5.63,8.34a7.51,7.51,0,0,0-1.18-2.11c-.84-1.09-2.6-3.16-4.15-2.93a.27.27,0,0,0-.19.38c.25.74,1.11,1.16,1.68,1.62a11.88,11.88,0,0,1,1.58,1.59,7.87,7.87,0,0,1,1.8,3.27c-.16.15-.31.32-.48.47C254,176.69,250.05,175.85,247.88,172.77Zm4,40.6c-5.38,4.42-13.28,4.34-18.1-.89a12,12,0,0,1,2-17.73c3-2.19,5.95-3.14,8-6.47,1.88-3,3.84-5.27,7.42-5.57l.25.09a8.57,8.57,0,0,0-1.88,2.85c-.09.25.24.5.44.3.75-.75,1.24-1.75,2-2.55a3.44,3.44,0,0,1,.27-.27c4.88,2.41,1.82,9.29,1.78,13.73,0,2.8,1.46,5.2,1.74,7.93A10.28,10.28,0,0,1,251.85,213.37Z"/><path class="cls-3" d="M237.55,197.15c-.3-.14.24.13-.18-.08l-.31-.14h0a.38.38,0,0,0-.14-.11l-.12-.1a.75.75,0,0,0-.15-.23.21.21,0,0,1,0,.08s0-.12,0-.14l0,0c-.07-.08,0-.07,0,0l-.09-.28a.53.53,0,0,0-1,.21,2.5,2.5,0,0,0,.66,1.41,2.16,2.16,0,0,0,.79.53,1,1,0,0,0,1-.17.46.46,0,0,0,.11-.52A.9.9,0,0,0,237.55,197.15Zm-.76-.44h0C236.65,196.61,236.76,196.67,236.79,196.71Z"/><path class="cls-3" d="M236.61,196.43l0,.06a.34.34,0,0,0-.06-.12s0,0,0,.06Z"/><path class="cls-3" d="M235,199.21l0-.05a1.28,1.28,0,0,0-.11-.2l-.15-.33c-.2-.45-1-.2-.84.29s.42,1.36,1,1.58a.46.46,0,0,0,.61-.52A2.4,2.4,0,0,0,235,199.21Z"/><path class="cls-3" d="M251,211.89a4.74,4.74,0,0,1-.49.1h-.11a3,3,0,0,0-.31,0,.51.51,0,0,0-.07,1,2.64,2.64,0,0,0,1.12,0c.39-.09,1-.45.91-.94S251.31,211.8,251,211.89Z"/><path class="cls-3" d="M253.16,209.73a.41.41,0,0,0-.22,0l-.1,0a.71.71,0,0,0-.22.07l-.11.06h0a2.56,2.56,0,0,0-.24.11h0l-.08,0-.36.06c-.54.07-.37.87.17.83a2.06,2.06,0,0,0,.84-.22.9.9,0,0,0,.38-.37h0s.08-.13.08-.14a.43.43,0,0,0,0-.25A.22.22,0,0,0,253.16,209.73Z"/><path class="cls-3" d="M254.23,205.92l-.32.19a2.53,2.53,0,0,1-.37.18l-.12.05-.21.07a.49.49,0,0,0,.19,1c.56-.08,1.91-.34,1.74-1.15C255.05,205.78,254.57,205.76,254.23,205.92Z"/></g></g></svg>