<svg xmlns="http://www.w3.org/2000/svg" viewBox="0 0 271 417"><defs><style>.cls-1{fill:#4f9434;}.cls-2{fill:#fff;}.cls-3{fill:#315e29;}</style></defs><title>Card Background 3</title><g id="Capa_2" data-name="Capa 2"><g id="Capa_1-2" data-name="Capa 1"><g id="Capa_2-2" data-name="Capa 2"><g id="Capa_1-2-2" data-name="Capa 1-2"><path class="cls-1" d="M263,417H8a8,8,0,0,1-8-8V208.5a111.38,111.38,0,0,1,43.7-25.62,113.18,113.18,0,0,1,41-4.32c48.81,3.37,63.9,32.4,104.4,41.4,18.1,4,45.12,4.89,81.86-11.46V409A8,8,0,0,1,263,417Z"/></g></g><path class="cls-2" d="M263,0H8A8,8,0,0,0,0,8V208.5a111.32,111.32,0,0,1,43.7-25.62,113.2,113.2,0,0,1,41-4.32c48.81,3.36,63.9,32.4,104.4,41.4,18.1,4,45.12,4.89,81.86-11.46V8A8,8,0,0,0,263,0Z"/><path class="cls-3" d="M142.31,169.48c-5.3,5.15-1.41,13.47,5.16,15a13.21,13.21,0,0,0,10-2.08,7.88,7.88,0,0,0,2.63-2.5c1.66-2.64,2.54-6.57.89-9.39C157.44,164.39,146.91,165,142.31,169.48Zm17.44,3.44a8.43,8.43,0,0,1-1.6,6.85,9.37,9.37,0,0,1-1.52,1.43,16.7,16.7,0,0,1-5.35,2,10.38,10.38,0,0,1-2.6-.12c-5.79-1-9-7.81-4.91-12.46C147.45,166.49,158.23,166.73,159.75,172.92Z"/><path class="cls-3" d="M146.72,171.4a.08.08,0,0,1-.1-.1,2.93,2.93,0,0,1,1.47-1.53c.56-.26,1.49-.62,2-.15a.31.31,0,0,1,0,.43c-.39.45-1.06.41-1.59.61A14.86,14.86,0,0,0,146.72,171.4Z"/><path class="cls-3" d="M154.58,170.16c.33.22.74.62.65,1.06a.23.23,0,0,1-.26.18c-.33-.07-.55-.36-.79-.56a2.33,2.33,0,0,0-1-.49c-.45-.1-.35-.8.11-.72A3.1,3.1,0,0,1,154.58,170.16Z"/><path class="cls-3" d="M141.71,160.2c-3.52,1.84-7.27,5.43-8.4,9.54a.94.94,0,0,0-.43.65c-1.23,6.77-1.46,14.43,2.19,20.55a16.56,16.56,0,0,0,2.35,3.06c4.2,9.64,18.83,6.8,25.64,2a38.23,38.23,0,0,0,6.17-5.69,22,22,0,0,1,4.06-3.89c1.55-1,3.39-1.32,5.08-2,4.09-1.59,7.76-4.81,8.35-9.33a.31.31,0,0,0,.09-.19c.72-5.38-.91-10.88-7.07-11.37-3.94-.32-7.71.78-11.69-.14-3.24-.75-6.15-2.51-9.16-3.86C153,156.86,147.46,157.19,141.71,160.2Zm4.7,38.09a13.55,13.55,0,0,0,3.16-.16c7.94-1.31,13.18-7.53,19.57-11.78,4.28-2.86,10.53-3.76,14.46-7.08a12.46,12.46,0,0,1-2.31,2.14c-2,1.41-4.37,2.06-6.51,3.17-3.6,1.88-6.09,4.74-9,7.44C160.49,196.84,152.94,199.81,146.41,198.29Zm-1-37.84c5.55-2.22,9.88-1,15,1.41,3.78,1.77,7.35,3.28,11.6,3.24,3.16,0,6.76-.83,9.78.33,3.36,1.29,4.36,5.5,4.35,8.79l0,.06c-1.78,6.8-11.48,7.37-16.61,10.48-5.72,3.47-10.43,8.9-16.81,11.22-6.79,2.47-13.41-.22-16.67-6.64-2.77-5.46-2.14-11.56-1.39-17.43a14.68,14.68,0,0,1,3.06-6.31A20,20,0,0,1,145.36,160.45Z"/><path class="cls-3" d="M30.76,143.91a3.77,3.77,0,0,0-3.43,2.51,3,3,0,0,0-3.61.5,4,4,0,0,0-1.09,2.3,4.27,4.27,0,0,0-.05.89l-.51-.05c-2.21,0-4.24.81-4.84,2.79-2.47-2.22-7-.12-5.94,3.21-1.49-.89-4.06-.53-4.92,1-1.09,2-.43,4.68.56,6.53.09.18.4.06.32-.13a8.37,8.37,0,0,1-.61-4.91,2.35,2.35,0,0,1,2.33-2c.85,0,1.66.21,2.5.19a.33.33,0,0,0,.13,0,.35.35,0,0,0,.5-.29c-.07-2.71,3-5.16,5-2.2a.48.48,0,0,0,.88-.24c0-1.49,2.61-3.17,4.07-2.84a4,4,0,0,1,2.85,3.35.5.5,0,0,0,.82.22l2.18-1.18q2.55.12,2.67,2.4c.55,1.77,0,2.77-1.53,3.9a.2.2,0,0,0,.15.37,3.94,3.94,0,0,0,1.66-.77c1.6.72,3,1.86,3,3.82a3.25,3.25,0,0,1-.75,2,.41.41,0,0,0-.27.3,5.12,5.12,0,0,1-2.5,1.22.33.33,0,0,0-.26.33.18.18,0,0,0-.09.26,6.19,6.19,0,0,1,.66,3.29,4,4,0,0,1-2.06,3.31,4.89,4.89,0,0,1-3.18,1c-1.25-.12-1.62-.91-2.44-1.66a.2.2,0,0,0-.14-.06c0-.09-.08-.18-.13-.27a.29.29,0,0,0-.53.22c.1.5-1.83,1.1-2.15,1.15a3.22,3.22,0,0,1-2.44-.76,4,4,0,0,1-1.31-3.12l.09-.11a.36.36,0,0,0-.14-.52c0-.2,0-.4-.07-.6-.05-.36-.56-.29-.66,0a3.91,3.91,0,0,0-.19,1,3.82,3.82,0,0,1-4.62.31,3.67,3.67,0,0,1-.3-5.68c.18-.18.07-.59-.22-.56a5.89,5.89,0,0,1-2.59-.52.15.15,0,0,0-.17.22,2.22,2.22,0,0,0,2.05,1,4.71,4.71,0,0,0,.51,6.1,4.15,4.15,0,0,0,1.12.77,2.82,2.82,0,0,0,.5,3.37c-1.75.58-3.22,2-2.72,4.1a5.57,5.57,0,0,0,4.4,3.74c-1.05,4.56,4.57,7.11,7.73,3.86,1.13,1.75,2.56,3.42,4.87,3.18a5,5,0,0,0,4.07-3.79,3,3,0,0,0,2.65-2.95,3.44,3.44,0,0,0-.38-1.9.32.32,0,0,0,.09,0c2.87-1.46,6-3.4,9.3-3.27s6,1.85,8.9,3a.32.32,0,0,0,.41-.13.23.23,0,0,0,.24,0c3.32-1.54,5.81-7.85,3.32-10.93a.3.3,0,0,0-.19-.39c-2.7-1-5.64-.76-8.25-2.26-3.32-1.93-4.16-5-5.34-8.3a4.14,4.14,0,0,0,3.35-4c.14-1.79-1.46-5.22-3.49-4.69.73-3.32-3.25-5.5-5.93-3.67A3.91,3.91,0,0,0,30.76,143.91Zm3.17,21.5a5,5,0,0,0,.57-3.09,3.69,3.69,0,0,0,1.57.08c.22.82.61,1.62.9,2.42.23.6.45,1.21.67,1.81-.45-.13-.93-.21-1.34-.34C35.51,166,34.73,165.68,33.93,165.41Zm-2.55,6.2a5.68,5.68,0,0,0,.05-1.1c1,.33,2,.55,3,.86s1.66.83,2.53,1.07c-1.79,1.7-4.18,2-6.28,3.19a4.18,4.18,0,0,0-.93-1.41A4.09,4.09,0,0,0,31.38,171.61Zm0,11.11c.2,1.53-.44,2.17-1.52,2.88a.35.35,0,0,0-.59.06c-.62,1.23-1.59,3.38-3.19,3.43-2.15.07-3.72-1.49-4.73-3.12a.44.44,0,0,0-.76,0c-2.73,3.64-7.47.59-6.42-3.36a.42.42,0,0,0-.8-.22l0,.09c-3-1.1-5.73-5.45-.94-6.66a.41.41,0,0,0,.18-.67,3.53,3.53,0,0,1-.92-3,4.17,4.17,0,0,0,3.63-.73,5.35,5.35,0,0,0,3,4,3.8,3.8,0,0,0,3.52-.57,3.09,3.09,0,0,0,.75-.67,3.09,3.09,0,0,0,1.92,1.51,5.34,5.34,0,0,0,4.47-1l.11-.07a2.88,2.88,0,0,1-.24,4.49c-.19.14-.28.49,0,.61C30.33,180.42,31.2,181.12,31.41,182.72Zm8.41-23.43c1.29,6.56,7.15,11.7,14.09,11.05a11.85,11.85,0,0,1,0,5,10.27,10.27,0,0,1-3.07,5.22.53.53,0,0,0-.12-.14,17.54,17.54,0,0,0-9.69-3.33c-3.37.08-6.47,1.88-9.16,3.73a.2.2,0,0,0-.08.08A4.79,4.79,0,0,0,30,179.45a2.84,2.84,0,0,0,.86-3.19,15,15,0,0,0,4.32-1.37,4.24,4.24,0,0,0,2.64-2.44.36.36,0,0,0-.35-.43,10.14,10.14,0,0,0-2.69-1.18,17.44,17.44,0,0,0-3.46-1.18,6.28,6.28,0,0,0-.82-2.19,4.17,4.17,0,0,0,2.85-1.27,12.84,12.84,0,0,0,2.51,1,6.69,6.69,0,0,0,2.34.52.39.39,0,0,0,.35-.08l.05,0a.24.24,0,0,0,.11-.4.73.73,0,0,0-.09-.08,15.87,15.87,0,0,0-1.72-5,3.34,3.34,0,0,0,1.8-2.84A7,7,0,0,0,39.82,159.29Zm-6-11.44a.47.47,0,0,0,.79.21,2.77,2.77,0,0,1,4.53.39A4.17,4.17,0,0,1,39.6,151l-.06,0c-.16.14,0,.36.16.38,4.82.5,3.58,6.34.69,7.13a.36.36,0,0,0-.61.09,3,3,0,0,1-1.31-.31.47.47,0,0,0-.7.4,2.78,2.78,0,0,1-3.39,2.79h0a4.17,4.17,0,0,0-2.87-2.86c1.72-2.74-1.49-7.74-5.71-5.2a3.7,3.7,0,0,0-2.13-3.13,3.55,3.55,0,0,1-.08-.47A3,3,0,0,1,24,148a2.26,2.26,0,0,1,2-1.13,3.42,3.42,0,0,1,1.3.63.24.24,0,0,0,.3.13.29.29,0,0,0,.3-.3c.67-.93,1.11-1.86,2.39-2.16C32.22,144.71,33.56,146,33.81,147.85Z"/><path class="cls-3" d="M228,189.37a92.66,92.66,0,0,1,10.67,0c-5.54,2-10,7.29-10.47,13.21-.54,6.61,5.17,12.73,11.1,14.78,3.94,1.36,7.71.73,11.46-.86s8.29-1.53,12-3.42c6.86-3.47,7.88-14,5.71-20.45-2.49-7.4-10.45-8.84-17.15-7.06a34,34,0,0,1,6.75-6.65c.27-.2.23-.74-.19-.71-3.87.28-9.43,3.14-11.06,7.25a16.56,16.56,0,0,0-3.57-7.17c-.82-1-2.62-3-4-3.15s-2.55,1-3.46,1.79a.48.48,0,0,0,.09.75,19.72,19.72,0,0,1,9.3,10.56,14.52,14.52,0,0,0-17.49.12A.52.52,0,0,0,228,189.37Zm11.39,1.56a18.09,18.09,0,0,0-7,8.11c-.24.51.29,1.25.85.85,3.82-2.67,7.66-5.29,11.65-7.69A45.69,45.69,0,0,1,248.51,203c.11.71,1.09.44,1.15-.16a44,44,0,0,0-.5-12.07,27.74,27.74,0,0,1,12.74,3.32c.31.17.77-.21.53-.53-3-4-7.67-5.63-12.48-5.9.24-.41.5-.81.77-1.2,4.74-.92,10.24-.93,14,2.6,3.34,3.18,4.11,8.52,3.55,12.89-.63,5-3.17,9.31-8.25,10.63-3.26.85-6.32,1.1-9.45,2.44-4.88,2.09-9.65,2.41-14.23-.66-3.42-2.29-6.65-5.91-6.69-10.24C229.55,198,234.12,193.37,239.38,190.93Zm-9.51-2.65a14.59,14.59,0,0,1,14.61.24l.51.22a13.37,13.37,0,0,1,1.43.67v-.06a.17.17,0,0,0,0-.12,20.88,20.88,0,0,0-9.41-12c1.75-1.24,2.78-1,4.43.61a17,17,0,0,1,2.49,3.05c.46.74.79,1.55,1.18,2.31a15.59,15.59,0,0,1,1.59,5.06c.47-.81,2-2.77,2.11-3a16.29,16.29,0,0,1,1.86-2.43,14.56,14.56,0,0,1,5.31-3.28,34.56,34.56,0,0,0-7.35,8.31.52.52,0,0,0,.44.78c3.95.27,7.71,1.19,10.78,3.54a26.33,26.33,0,0,0-11.35-2.6.59.59,0,0,0-.56.73,45.71,45.71,0,0,1,.7,8.62,22,22,0,0,0-2.91-7.29q-.32-.33-.66-.63c-.05,0-.2-.12-.35-.21h0a83.56,83.56,0,0,0-10.06,6.41,18.1,18.1,0,0,1,9-7.16c.33-.14.43-.67,0-.77A57,57,0,0,0,229.87,188.28Z"/><path class="cls-3" d="M238.56,213.28a10.94,10.94,0,0,1,2-.25,7.59,7.59,0,0,0,2.27-.71.38.38,0,0,1,.38.66c-1.17.86-3.36,1.7-4.68.69A.22.22,0,0,1,238.56,213.28Z"/><path class="cls-3" d="M236.14,210.54c.7-.19,1.33,0,2-.45s1.15.24.69.69c-.69.68-2,1.25-2.86.54A.47.47,0,0,1,236.14,210.54Z"/><path class="cls-3" d="M263.44,203c.2-.34.54-.39.88-.52a1.9,1.9,0,0,0,.79-.61c.35-.42,1.07.14.76.59a2.88,2.88,0,0,1-1,1c-.4.22-1,.41-1.34,0A.35.35,0,0,1,263.44,203Z"/><path class="cls-3" d="M263.44,205.3a.34.34,0,0,1,0,.67A.34.34,0,0,1,263.44,205.3Z"/></g></g></svg>