<svg xmlns="http://www.w3.org/2000/svg" viewBox="0 0 271 417"><defs><style>.cls-1{fill:#4f9434;}.cls-2{fill:#fff;}.cls-3{fill:#315e29;}</style></defs><title>Card Background 2</title><g id="Capa_2" data-name="Capa 2"><g id="Capa_1-2" data-name="Capa 1"><g id="Capa_2-2" data-name="Capa 2"><g id="Capa_1-2-2" data-name="Capa 1-2"><path class="cls-1" d="M263,417H8a8,8,0,0,1-8-8V208.5a111.38,111.38,0,0,1,43.7-25.62,113.18,113.18,0,0,1,41-4.32c48.81,3.37,63.9,32.4,104.4,41.4,18.1,4,45.12,4.89,81.86-11.46V409A8,8,0,0,1,263,417Z"/></g></g><path class="cls-2" d="M263,0H8A8,8,0,0,0,0,8V208.5a111.32,111.32,0,0,1,43.7-25.62,113.2,113.2,0,0,1,41-4.32c48.81,3.36,63.9,32.4,104.4,41.4,18.1,4,45.12,4.89,81.86-11.46V8A8,8,0,0,0,263,0Z"/><path class="cls-3" d="M17.09,161.08c-1.83,1-2.12,3.21-1.47,5.09a6.59,6.59,0,0,0,.59,1.19c.55.95.62.11,0,1.2A6.66,6.66,0,0,0,15,171.67a3.88,3.88,0,0,0,.76,2.43c.65,1,.41,1.09.45,2.28A3.68,3.68,0,0,0,19.79,180c-.44,1.08.44,2.11,1.4,2.8a6.72,6.72,0,0,0,2.48,1.09c1.07.25.68-.13,1.31.83,2.3,3.46,6.41,2.65,8.88-.29,2,1.75,5.15.81,6.49-1.34,1.11.39,2.3.66,3.29-.17a5.32,5.32,0,0,0,1.56-4.15c1.17,1.72,3.23,3.38,5.37,2.24.53-.28.74-.66,1.33-.82.2-.06.54.13.77.12a3.49,3.49,0,0,0,2.66-1.14,3.15,3.15,0,0,0,.7-1.43c0,.08.1-1.45,0-1.36.18-.25,1.26-.36,1.65-.61,2.14-1.33,1.67-4.15.61-6,2.91-.71,3.4-4,2.29-6.39-.67-1.47.56-2.65.32-4.32a3.7,3.7,0,0,0-2.16-2.94c.68-1.34.17-3.36-.48-4.59a4.27,4.27,0,0,0-3.83-2.12l-.06,0c-.9-1.61-2.57-2.65-4.43-1.43a3.66,3.66,0,0,0-1.8-2.61A3.79,3.79,0,0,0,46,145c-.82.09-2.13,1.08-2.8.95s-1.56-1.32-2.38-1.61a4.69,4.69,0,0,0-2.65-.13,4.52,4.52,0,0,0-3.27,3.14,2.64,2.64,0,0,0-2.94-.19,4.23,4.23,0,0,0-1.4,1.39c-.57.8-.53.63-1.43.76a4,4,0,0,0-3.1,4.81c-2.14-1.38-5.3-.46-5.37,2.38-1.27-.43-2.75-.49-3.64.71A3.18,3.18,0,0,0,17.09,161.08ZM24,168.56a10.84,10.84,0,0,1-.27-6.26,10.43,10.43,0,0,1,3.61-.08c.16.35.42.68.6,1s.38,1,.59,1.44a.13.13,0,0,0,.24,0,3.26,3.26,0,0,0-.16-1.69,4.28,4.28,0,0,0-.17-.46c1,.32,2,.78,3,1a4,4,0,0,0,3.86-.74c.15-.15,0-.45-.19-.34-2.55,1.17-4.62-.27-7-.87a8.54,8.54,0,0,0-3-.22,10.47,10.47,0,0,1,2.59-1.76,29,29,0,0,1,4.51-1.06c.26-.07.5-.14.74-.23l.07.06c1,.54,2.77,1.06,3.78.32.09-.07.09-.25,0-.28a7.83,7.83,0,0,0-1.61-.11,6.39,6.39,0,0,1-1.43-.3,5.08,5.08,0,0,0,2.55-2.36c.08-.18-.21-.35-.31-.18-1.27,2.16-3.63,2.25-5.87,2.6.16-.2.32-.39.49-.57a11.66,11.66,0,0,0,1.16-1.06.16.16,0,0,0-.14-.25,3.66,3.66,0,0,0-2.26,2c-.27,0-.53.11-.79.18A8.79,8.79,0,0,0,24.12,161a14.9,14.9,0,0,1,2.5-4.55A11.73,11.73,0,0,1,37.2,151.8a15.5,15.5,0,0,1,5.13,1.38A30.92,30.92,0,0,1,46.56,156a6.08,6.08,0,0,0-1,2.86,3.28,3.28,0,0,0-3.48-.24,3.18,3.18,0,0,0-.88,3.19,4,4,0,0,0-3.8.37,3.34,3.34,0,0,0-.78,3.31A3.79,3.79,0,0,0,32.39,167a4.22,4.22,0,0,0,.14,3.83,3.12,3.12,0,0,0-2.63,2.65,3.64,3.64,0,0,0,.35,2.23A13.73,13.73,0,0,1,24,168.56Zm7.75,7.77c-1.57-1.72-1.18-4.11,1.38-4.79a.32.32,0,0,0,.2-.51c-.09-1.1-1-2.06-.46-3.28.76-1.79,2.68-1.36,4.18-1.55a.24.24,0,0,0,.22-.27,11.39,11.39,0,0,0-.12-1.53,2.07,2.07,0,0,1,1.12-1.87c1.13-.5,2.26.23,3.37,0a.25.25,0,0,0,.15-.39c0-1-.2-2.25.73-2.91s2.1.07,3.07.25a.22.22,0,0,0,.24-.12.18.18,0,0,0,.13-.18c.1-1.81,1.41-4.65,3.61-2.16a9.64,9.64,0,0,1,1.48,3.14A20.2,20.2,0,0,1,52,167a13.9,13.9,0,0,1-2,7.24,9.88,9.88,0,0,1-3.54,3.23,25.22,25.22,0,0,1-3.26.78,11.28,11.28,0,0,0,4.47-6.32,13.53,13.53,0,0,0,.49-3.32.14.14,0,0,0,.11,0,5.64,5.64,0,0,1,2-.23c.46,0,1.06-.06,1.32-.5a.14.14,0,0,0-.1-.18,4.32,4.32,0,0,0-.78.16,6.11,6.11,0,0,1-.86.09,4.44,4.44,0,0,0-1.57.32,9.52,9.52,0,0,1,.57-1.26c.38-.72,1-1.25,1.37-2,.08-.15-.11-.25-.23-.18a4.86,4.86,0,0,0-1.8,2.55c-.06-2-.38-4-.55-6a.16.16,0,0,0-.31,0c-.93,2.65.59,5.81.26,8.61a11,11,0,0,1-2,5.08,8.11,8.11,0,0,0,.07-4.85A7.25,7.25,0,0,0,43.52,167a6.21,6.21,0,0,0-.16-.84c-.07-.25-.13-.64-.37-.78-.08,0-.18,0-.21.05-.1.26,0,.56.1.81l.06.25c-.85-.73-1.76-1.41-2.54-2.18-.17-.17-.45.07-.36.27.87,1.87,3.1,2.73,4.28,4.39a6,6,0,0,1,.86,1.64,5.75,5.75,0,0,0-3-1c-.7-.06-1.41,0-2.12-.17a16.05,16.05,0,0,1-2.23-.81c-.11,0-.26.07-.2.19.74,1.39,2.54,1.48,4.32,1.56-.73.45-1.42.94-2.16,1.38a3.84,3.84,0,0,1-1.83.59,12.18,12.18,0,0,0-1.35,0,.16.16,0,0,0-.11.26,2.76,2.76,0,0,0,2.77.3,11.62,11.62,0,0,0,3.5-2.4l0-.07a5.73,5.73,0,0,1,2.5.57l0,0a7,7,0,0,1-.86,5.18.2.2,0,0,0,0,.2,13.34,13.34,0,0,1-2.35,1.91,20.94,20.94,0,0,1-4.41,0c-1.85-.18-3.94-.39-5.44-1.6a.42.42,0,0,0-.34-.43Zm17.81-25.66a.32.32,0,0,0,0,.57c1.43.61,2.69,1.49,2.89,3.16a6.6,6.6,0,0,1-1.11,3.77,5.05,5.05,0,0,0-2.54-3,1.78,1.78,0,0,0-1.94.41,7.54,7.54,0,0,0-.75-1c0-1.91,2-3.73,1.2-5.63a.15.15,0,0,0-.29,0A18.23,18.23,0,0,1,46,152.49a4.42,4.42,0,0,0-.29,1.67,12.53,12.53,0,0,0-4-2.38,8.42,8.42,0,0,1-.1-1.33,7.2,7.2,0,0,1,.58-1.77c0-.11-.07-.26-.19-.19-1,.51-1,2-.8,3.1a17.3,17.3,0,0,0-2.94-.73,5.3,5.3,0,0,1,0-1.64,8.65,8.65,0,0,0,.5-2.05.15.15,0,0,0-.23-.1,4.12,4.12,0,0,0-1,3.69,15,15,0,0,0-1.61-.11,13,13,0,0,0-1.67.09,8.63,8.63,0,0,0-.2-.88c-.07-.28-.13-.69-.42-.82a.19.19,0,0,0-.23.1c-.12.25.07.57.15.81s.18.57.26.86A12.3,12.3,0,0,0,27,154.34a3.72,3.72,0,0,1,.05-2.33,2.86,2.86,0,0,1,3.28-1.68.43.43,0,0,0,.47-.27c.62-1.62,2-3.12,3.86-2a.32.32,0,0,0,.45-.07.33.33,0,0,0,.29-.18c1.6-2.9,5.09-4.06,7.26-.84a.43.43,0,0,0,.59.08c1.16-.77,2.55-1.54,4-1.19C49.83,146.47,49.64,148.77,49.58,150.67ZM54,153.9a.36.36,0,0,0,.19.46c2.29.83,2.6,3.41,1,5.09a.18.18,0,0,0,0,.22,5.12,5.12,0,0,1,.75,1.45,3.5,3.5,0,0,1-.39,2,4.7,4.7,0,0,1-2.68,2.59,19.33,19.33,0,0,0-.24-2.94,23.56,23.56,0,0,0-1-3.93,6,6,0,0,0,1.42-5.26,4.15,4.15,0,0,0-3-2.9,7.56,7.56,0,0,0,0-2.18h.11C53.66,147.49,54.83,151.23,54,153.9Zm-8,24.64a8.28,8.28,0,0,0,4.63-3.83c.15.21.31.42.48.62s.37.53.66.56a.19.19,0,0,0,.21-.17c.07-.28-.21-.61-.38-.82a4.43,4.43,0,0,0-.69-.68A14.81,14.81,0,0,0,52,171.63a2.55,2.55,0,0,0,.69.37,1.58,1.58,0,0,0,.89.25.17.17,0,0,0,.13-.23,1.26,1.26,0,0,0-.71-.59,1.79,1.79,0,0,0-.87-.25,19.32,19.32,0,0,0,.65-3.68c.56.11,1.14.09,1.7.23a4.58,4.58,0,0,0,1.53.34c.08,0,.15-.11.11-.18-.52-.92-2.29-1.19-3.3-1,0-.22,0-.43,0-.64A5.53,5.53,0,0,0,56.5,163c.47-1.09.45-3.17-1-3.53a3,3,0,0,0,1.18-3.56,4,4,0,0,0-1.3-1.68c-.76-.66-.51-.57-.37-1.63a5,5,0,0,0-.37-2.52c1.05.62,2.3.72,2.92,2a7.17,7.17,0,0,1,.44,4.14.19.19,0,0,0,0,.08.27.27,0,0,0,.12.33,4.2,4.2,0,0,1,1.32,6,.22.22,0,0,0,0,.23c2.4,2.47,1,5.33-1.7,6.73a.18.18,0,0,0,.06.35v0c.39,1.8,1.4,6.39-2.22,5.67-.24-.05-.38.21-.32.41.88,2.58-1.7,4.22-3.77,3.42a.33.33,0,0,0-.43.17C49.63,182.3,47.19,180,46,178.54ZM20.89,157.47a.39.39,0,0,0,.54-.41,2.26,2.26,0,0,1,2.72-2.58,4.2,4.2,0,0,1,1.87.94q-.37.44-.72.9A15.69,15.69,0,0,0,22.49,163a4.56,4.56,0,0,1-1.17,0,4.41,4.41,0,0,0-1.14-.11.15.15,0,0,0-.1.23c.46.76,1.56.72,2.33.44A11,11,0,0,0,23,169a15.29,15.29,0,0,0,4.79,6.22,5.05,5.05,0,0,0-1.68,2.91.12.12,0,0,0,.22.09c.62-.89,1.24-1.81,1.93-2.65A11.58,11.58,0,0,0,31.16,177a5.74,5.74,0,0,0,1.21,1l0,0a19.62,19.62,0,0,0-1.28,2.1,3.2,3.2,0,0,0-.63,2,.18.18,0,0,0,.28.12,3.54,3.54,0,0,0,1-1.69c.34-.77.71-1.53,1.1-2.28a.13.13,0,0,0,0-.06,10.58,10.58,0,0,0,3.59.94,5.07,5.07,0,0,0-.39,3,.16.16,0,0,0,.3,0,5.12,5.12,0,0,0,.29-1.51,14.88,14.88,0,0,1,.29-1.48c.94.07,1.88.08,2.76.08a19.75,19.75,0,0,0,4.65-.43h.16c-.54,2.09-1,4.82-4.17,3.41a.4.4,0,0,0-.46.12c-1.49,2.28-3.62,2.48-6,1.36a.24.24,0,0,0-.37.19l0,0a11.38,11.38,0,0,1-3,2.05c-2.2.84-5,.09-5.36-2.58a.23.23,0,0,0-.26-.2c-2.09.19-4.42-1.12-4.21-3.44a.34.34,0,0,0-.52-.31c-2.16-.61-3.79-2.39-2.83-4.78a.43.43,0,0,0-.13-.5c-2.59-1.65-1.18-4.43.52-6a.42.42,0,0,0,0-.67c-2-1.33-2.2-4.75,0-6a.28.28,0,0,0,0-.48,3.67,3.67,0,0,1-.43-2.19C17.84,156.39,19.63,156.89,20.89,157.47Z"/><path class="cls-3" d="M23.8,173.08c.19-.25.66,0,.5.29A4.73,4.73,0,0,1,23,174.89c-.41.31-1.07.74-1.6.52-.07,0-.13-.13-.08-.2.24-.42.78-.59,1.16-.86A5.27,5.27,0,0,0,23.8,173.08Z"/><path class="cls-3" d="M20,169.39a7.66,7.66,0,0,0,1.58-.76c.32-.2.67.24.36.48a6,6,0,0,1-1.65,1,2.34,2.34,0,0,1-1.71.2.19.19,0,0,1,0-.33A4.32,4.32,0,0,1,20,169.39Z"/><path class="cls-3" d="M172.72,209.27a3.77,3.77,0,0,0,1.93-3.79,3,3,0,0,0,3-2.07,4,4,0,0,0-.07-2.55,4.61,4.61,0,0,0-.35-.81c.15-.06.31-.11.47-.19,2-1,3.42-2.63,3.08-4.66,3.2.87,6.32-3.07,3.84-5.55,1.73.12,3.87-1.35,3.94-3.11.09-2.25-1.73-4.38-3.44-5.59-.16-.11-.38.14-.23.27a8.36,8.36,0,0,1,2.76,4.1,2.36,2.36,0,0,1-1.16,2.88c-.75.4-1.58.55-2.32,1a.22.22,0,0,0-.09.1.34.34,0,0,0-.32.48c1.28,2.39-.39,6-3.48,4.23a.48.48,0,0,0-.68.61c.67,1.32-.91,4-2.36,4.36a4,4,0,0,1-4.05-1.7.49.49,0,0,0-.83.17l-1.41,2c-1.56.69-2.71.38-3.47-.94-1.28-1.34-1.25-2.48-.39-4.18a.2.2,0,0,0-.3-.26,3.78,3.78,0,0,0-1.13,1.44c-1.76.08-3.56-.29-4.36-2.08a3.29,3.29,0,0,1-.24-2.13.41.41,0,0,0,.12-.39,5.1,5.1,0,0,1,1.67-2.22.33.33,0,0,0,.09-.41.17.17,0,0,0,0-.26,6.23,6.23,0,0,1-2.07-2.65,4,4,0,0,1,.35-3.88,4.88,4.88,0,0,1,2.39-2.33c1.17-.45,1.85.09,2.92.39a.22.22,0,0,0,.16,0,1.66,1.66,0,0,0,.24.18.29.29,0,0,0,.37-.44c-.32-.39,1.14-1.8,1.4-2a3.21,3.21,0,0,1,2.51-.42,4,4,0,0,1,2.58,2.19.77.77,0,0,0,0,.15.36.36,0,0,0,.35.4l.33.5c.21.3.64,0,.6-.3a4.09,4.09,0,0,0-.3-1,3.82,3.82,0,0,1,4-2.35,3.66,3.66,0,0,1,2.82,4.93c-.07.24.21.57.46.4a5.87,5.87,0,0,1,2.55-.7.15.15,0,0,0,.05-.27,2.22,2.22,0,0,0-2.29,0,4.71,4.71,0,0,0-3.2-5.23,4.26,4.26,0,0,0-1.35-.18,2.83,2.83,0,0,0-2-2.78c1.3-1.31,2-3.27.59-4.89a5.59,5.59,0,0,0-5.61-1.36c-1.12-4.54-7.29-4.28-8.65,0-1.79-1.06-3.82-1.9-5.77-.65a5,5,0,0,0-1.94,5.22,3.06,3.06,0,0,0-1,3.83,3.59,3.59,0,0,0,1.19,1.53s-.05,0-.07.06c-1.9,2.6-3.78,5.73-6.82,7.11s-6.17,1-9.31,1.32a.31.31,0,0,0-.31.3.23.23,0,0,0-.21.1c-2.27,2.88-1.65,9.63,2,11.26a.28.28,0,0,0,.34.26c2.87-.29,5.37-1.86,8.38-1.69,3.83.22,5.95,2.55,8.51,5a4.14,4.14,0,0,0-1.22,5c.69,1.66,3.66,4,5.23,2.62.85,3.29,5.38,3.45,7,.6A3.9,3.9,0,0,0,172.72,209.27ZM160.2,191.51a5,5,0,0,0,.88,3,3.54,3.54,0,0,0-1.43.64,24.16,24.16,0,0,0-1.9-1.75l-1.41-1.32c.46-.09.93-.24,1.35-.3C158.52,191.67,159.37,191.62,160.2,191.51Zm-.52-6.69a5.63,5.63,0,0,0,.46,1c-1,.16-2,.41-3,.58s-1.86,0-2.75.19c.84-2.33,2.83-3.68,4.18-5.68a4.3,4.3,0,0,0,1.46.84A4.14,4.14,0,0,0,159.68,184.82Zm-5-9.91c-.86-1.27-.58-2.13.07-3.25a.35.35,0,0,0,.49-.31c0-1.39-.1-3.75,1.3-4.51,1.89-1,4-.35,5.63.66a.46.46,0,0,0,.69-.35c.79-4.48,6.39-3.88,7.24.11a.41.41,0,0,0,.81-.16s0-.06,0-.1c3.22-.39,7.58,2.29,3.85,5.53a.4.4,0,0,0,.14.67,3.53,3.53,0,0,1,2.19,2.31,4.14,4.14,0,0,0-2.92,2.29,5.27,5.27,0,0,0-4.52-2.23,3.77,3.77,0,0,0-2.89,2.09,3,3,0,0,0-.36.94,3.11,3.11,0,0,0-2.4-.49,5.33,5.33,0,0,0-3.56,2.86l-.07.11a2.87,2.87,0,0,1-1.81-4.11c.11-.21,0-.56-.27-.55C156.65,176.48,155.56,176.25,154.65,174.91Zm3,24.71c-4.11-5.27-11.66-7.22-17.56-3.51a11.85,11.85,0,0,1-2.29-4.48,10.28,10.28,0,0,1,.39-6,.44.44,0,0,0,.17.07,17.5,17.5,0,0,0,10.15-1.4c3-1.59,4.93-4.59,6.5-7.45a.23.23,0,0,0,0-.11,5,5,0,0,0,2.29.51,2.84,2.84,0,0,0,.67,3.22,15.47,15.47,0,0,0-3.24,3.17,4.25,4.25,0,0,0-1.25,3.38.35.35,0,0,0,.51.22A9.92,9.92,0,0,0,157,187a17,17,0,0,0,3.62-.5,6.17,6.17,0,0,0,1.73,1.58,4.16,4.16,0,0,0-2,2.42,12.71,12.71,0,0,0-2.69.25,6.56,6.56,0,0,0-2.33.59.35.35,0,0,0-.27.23l0,0a.25.25,0,0,0,.08.41l.12,0a15.59,15.59,0,0,0,3.79,3.68,3.31,3.31,0,0,0-.32,3.35A6.33,6.33,0,0,0,157.7,199.62Zm10.52,7.51a.47.47,0,0,0-.8.16,2.77,2.77,0,0,1-4.22,1.7,4.15,4.15,0,0,1-1.58-2.08l0-.07c.08-.2-.14-.33-.31-.27-4.53,1.72-6.05-4-3.83-6.06a.36.36,0,0,0,.51-.35,2.77,2.77,0,0,1,1.3-.31.47.47,0,0,0,.45-.67,2.78,2.78,0,0,1,1.77-4l0,0a4.14,4.14,0,0,0,3.85,1.26c-.31,3.22,4.82,6.24,7.44,2.08a3.71,3.71,0,0,0,3.31,1.83,3.8,3.8,0,0,1,.29.38,3,3,0,0,1,.44,1.91,2.26,2.26,0,0,1-1.28,1.91,3.38,3.38,0,0,1-1.45,0,.22.22,0,0,0-.32,0,.28.28,0,0,0-.14.4c-.18,1.13-.15,2.16-1.16,3C171.05,209.22,169.27,208.66,168.22,207.13Z"/><path class="cls-3" d="M255.53,198.9c-.79-4.41,3.39-14.63-2.24-16.75.31-.27.62-.53,1-.78.72-.53,2.64-1.25,3.56-2.18a.27.27,0,0,0,.44-.1c1.89-4,.5-8.18-2.81-10.88s-7.86-3.94-10.16-7.63a.53.53,0,0,0-1,.19c-.35,4.13-.13,9,2.33,12.57,2,2.89,6.27,4.75,9.66,5.84l-.58.32a17.67,17.67,0,0,0-2.46,1.66c-.27.23-.55.47-.83.73a8,8,0,0,0-1.53-.14.45.45,0,0,0-.27.1c-2.55-.15-4.82,1.48-6.39,3.54-1,1.34-1.69,2.93-2.81,4.18-1.47,1.63-3.51,2.46-5.35,3.56a13.29,13.29,0,0,0-4.89,17.93c3.74,6.59,12.26,8.53,18.8,5a14.42,14.42,0,0,0,6.46-7.49C257.67,205.1,256.14,202.32,255.53,198.9Zm-7.65-26.13a17,17,0,0,1-2.65-10.3,9.39,9.39,0,0,0,2.41,2.68,52.93,52.93,0,0,0,4.74,2.88c3.59,2.13,5.63,4.65,5.63,8.34a7.51,7.51,0,0,0-1.18-2.11c-.84-1.09-2.6-3.16-4.15-2.93a.27.27,0,0,0-.19.38c.25.74,1.11,1.16,1.68,1.62a11.88,11.88,0,0,1,1.58,1.59,7.87,7.87,0,0,1,1.8,3.27c-.16.15-.31.32-.48.47C254,176.69,250.05,175.85,247.88,172.77Zm4,40.6c-5.38,4.42-13.28,4.34-18.1-.89a12,12,0,0,1,2-17.73c3-2.19,5.95-3.14,8-6.47,1.88-3,3.84-5.27,7.42-5.57l.25.09a8.57,8.57,0,0,0-1.88,2.85c-.09.25.24.5.44.3.75-.75,1.24-1.75,2-2.55a3.44,3.44,0,0,1,.27-.27c4.88,2.41,1.82,9.29,1.78,13.73,0,2.8,1.46,5.2,1.74,7.93A10.28,10.28,0,0,1,251.85,213.37Z"/><path class="cls-3" d="M237.55,197.15c-.3-.14.24.13-.18-.08l-.31-.14h0a.38.38,0,0,0-.14-.11l-.12-.1a.75.75,0,0,0-.15-.23.21.21,0,0,1,0,.08s0-.12,0-.14l0,0c-.07-.08,0-.07,0,0l-.09-.28a.53.53,0,0,0-1,.21,2.5,2.5,0,0,0,.66,1.41,2.16,2.16,0,0,0,.79.53,1,1,0,0,0,1-.17.46.46,0,0,0,.11-.52A.9.9,0,0,0,237.55,197.15Zm-.76-.44h0C236.65,196.61,236.76,196.67,236.79,196.71Z"/><path class="cls-3" d="M236.61,196.43l0,.06a.34.34,0,0,0-.06-.12s0,0,0,.06Z"/><path class="cls-3" d="M235,199.21l0-.05a1.28,1.28,0,0,0-.11-.2l-.15-.33c-.2-.45-1-.2-.84.29s.42,1.36,1,1.58a.46.46,0,0,0,.61-.52A2.4,2.4,0,0,0,235,199.21Z"/><path class="cls-3" d="M251,211.89a4.74,4.74,0,0,1-.49.1h-.11a3,3,0,0,0-.31,0,.51.51,0,0,0-.07,1,2.64,2.64,0,0,0,1.12,0c.39-.09,1-.45.91-.94S251.31,211.8,251,211.89Z"/><path class="cls-3" d="M253.16,209.73a.41.41,0,0,0-.22,0l-.1,0a.71.71,0,0,0-.22.07l-.11.06h0a2.56,2.56,0,0,0-.24.11h0l-.08,0-.36.06c-.54.07-.37.87.17.83a2.06,2.06,0,0,0,.84-.22.9.9,0,0,0,.38-.37h0s.08-.13.08-.14a.43.43,0,0,0,0-.25A.22.22,0,0,0,253.16,209.73Z"/><path class="cls-3" d="M254.23,205.92l-.32.19a2.53,2.53,0,0,1-.37.18l-.12.05-.21.07a.49.49,0,0,0,.19,1c.56-.08,1.91-.34,1.74-1.15C255.05,205.78,254.57,205.76,254.23,205.92Z"/></g></g></svg>