<svg xmlns="http://www.w3.org/2000/svg" viewBox="0 0 75.91 77.6"><defs><style>.cls-1{fill:#325f29;}</style></defs><title>Recurso 6</title><g id="Capa_2" data-name="Capa 2"><g id="Capa_1-2" data-name="Capa 1"><path class="cls-1" d="M3.06,46.43C1,49.2,2.21,52.82,4.58,55.17a10.4,10.4,0,0,0,1.75,1.36c1.52,1,1-.28.9,1.8S6.74,62,7.59,64a6.54,6.54,0,0,0,2.93,3.1c1.7,1,1.41,1.34,2.35,3.11A6.13,6.13,0,0,0,21,73c.13,2,2.22,2.85,4.18,3.19A11.1,11.1,0,0,0,29.69,76c1.81-.41.93-.7,2.59.28,6,3.53,11.6-.69,13.16-6.93,4.35,1.15,8.37-2.56,8.82-6.78,2-.23,3.94-.69,4.82-2.66a8.92,8.92,0,0,0-.68-7.41c3,1.75,7.34,2.74,9.73-.54.6-.82.64-1.55,1.4-2.22.27-.23.93-.19,1.26-.39A5.87,5.87,0,0,0,74,45.72a5.36,5.36,0,0,0,0-2.67A22.74,22.74,0,0,0,73,41c.09-.51,1.62-1.46,2-2.12,2.26-3.57-.52-7.47-3.5-9.53,3.87-3.2,2.22-8.47-1.22-11.31-2.1-1.73-1.1-4.4-2.68-6.75A6.25,6.25,0,0,0,62.27,8.4c0-2.51-2.2-5.19-4.09-6.57a7.16,7.16,0,0,0-7.32-.38s0,.06-.07.09C48.25-.24,45-.58,43.06,2.62A6.15,6.15,0,0,0,38.43,0a6.47,6.47,0,0,0-3.61,1.08c-1.16.73-2.42,3.19-3.52,3.49S28,3.71,26.53,3.88a7.75,7.75,0,0,0-4.08,1.74,7.56,7.56,0,0,0-2.65,7.12,4.42,4.42,0,0,0-4.56,1.87,7.11,7.11,0,0,0-1.09,3.13c-.28,1.62-.34,1.34-1.6,2.18-3,2-3.44,6.86-1.15,9.52C7.15,28.93,3.07,32.63,5,37c-2.23.28-4.5,1.26-5,3.73C-.33,42.81.94,45.77,3.06,46.43ZM19,52.62a18.09,18.09,0,0,1-5-9.24,17.83,17.83,0,0,1,5.38-2.76c.5.42,1.14.72,1.66,1.09.72.52,1.27,1.19,1.95,1.75a.21.21,0,0,0,.33-.22,5.26,5.26,0,0,0-1.48-2.42,6.64,6.64,0,0,0-.6-.58C23,40,24.76,40,26.49,39.59c2.39-.53,4.39-1.6,5.28-4,.12-.33-.29-.68-.54-.37-3,3.63-7.15,3-11.27,3.85A14.58,14.58,0,0,0,15.26,41a17.79,17.79,0,0,1,2.62-4.55c1.74-2,4-3.22,6-4.91.34-.28.65-.58,1-.88a.58.58,0,0,0,.14,0c1.89.09,4.94-.42,5.93-2.27.09-.17-.05-.45-.27-.41a13.82,13.82,0,0,0-2.5,1,10.93,10.93,0,0,1-2.38.6A8.54,8.54,0,0,0,27.9,24.2c0-.33-.56-.38-.59,0-.34,4.19-3.83,6.05-6.94,8.2.09-.4.19-.8.32-1.2a20.45,20.45,0,0,0,1-2.45.26.26,0,0,0-.4-.27c-1.28.87-1.92,3.06-1.94,4.68-.36.28-.72.55-1.05.85a14.64,14.64,0,0,0-4.67,7.19,25,25,0,0,1,.43-8.7c1.66-7,5.76-12.13,12.56-14.75A26,26,0,0,1,35.32,16c2.93-.06,5.59.72,8.42,1.11a10.24,10.24,0,0,0,.59,5c-1.91-.26-4.51.45-5.42,2.18s-.11,3.88,1,5.46c-2.13.17-4.64,1.48-5.46,3.34a5.61,5.61,0,0,0,1.25,5.57,6.32,6.32,0,0,0-5.24,5.45,7.05,7.05,0,0,0,3,5.67c-2,1-2.66,3.79-2,5.91a6.06,6.06,0,0,0,2.17,3.11A23,23,0,0,1,19,52.62Zm17.37,6c-3.63-1.44-4.79-5.33-1.43-8.22a.53.53,0,0,0-.08-.91c-.94-1.61-3-2.4-3.08-4.62-.17-3.26,3-4,5.16-5.4a.4.4,0,0,0,.13-.57c-.24-.85-.94-1.4-1.29-2.21a3.44,3.44,0,0,1,.31-3.64c1.33-1.58,3.58-1.3,5-2.54a.41.41,0,0,0,0-.68c-.78-1.47-1.94-3.25-1-4.92s3.2-1.44,4.8-1.88a.35.35,0,0,0,.27-.36.3.3,0,0,0,.07-.36c-1.17-2.81-1.28-8,3.86-5.9a16.19,16.19,0,0,1,4.53,3.64,33.87,33.87,0,0,1,6.48,9.65,23.4,23.4,0,0,1,2.3,12.36,16.48,16.48,0,0,1-3,7.46,43.87,43.87,0,0,1-4.33,3.56,19,19,0,0,0,2.11-12.8A22.66,22.66,0,0,0,55.46,35a.28.28,0,0,0,.18-.1,9,9,0,0,1,2.78-1.78c.68-.37,1.55-.87,1.62-1.72a.22.22,0,0,0-.28-.19,5.9,5.9,0,0,0-1.06.8,10.61,10.61,0,0,1-1.23.78,7.24,7.24,0,0,0-2.13,1.63,16.54,16.54,0,0,1-.07-2.33c.06-1.35.61-2.62.63-4,0-.28-.36-.29-.48-.1a8.17,8.17,0,0,0-.84,5.16c-1.55-2.94-3.48-5.71-5.2-8.58a.27.27,0,0,0-.49.17c.53,4.67,5.14,8.33,6.68,12.79a18.39,18.39,0,0,1,.77,9.1,13.68,13.68,0,0,0-3.46-7.36,11.93,11.93,0,0,0-5.62-3.21,7.43,7.43,0,0,0-.85-1.15c-.29-.33-.67-.87-1.14-.91a.23.23,0,0,0-.27.24c0,.45.48.79.75,1.14l.27.33c-1.82-.47-3.69-.83-5.43-1.43-.38-.12-.63.44-.35.67,2.69,2.19,6.67,1.85,9.68,3.48a10.89,10.89,0,0,1,2.5,1.85,9.71,9.71,0,0,0-5.28.77c-1.11.43-2.16,1-3.31,1.31a26.55,26.55,0,0,1-4,.39c-.2,0-.35.3-.16.45,2.13,1.55,4.91.37,7.64-.81-.77,1.21-1.45,2.45-2.24,3.66a6.69,6.69,0,0,1-2.32,2.23,19.29,19.29,0,0,0-2,1,.28.28,0,0,0,0,.47c1.53.56,3.32-.51,4.4-1.57,1.65-1.62,2.62-4.1,3.51-6.18a.94.94,0,0,0,0-.16,9.4,9.4,0,0,1,4.18-1H53a11.79,11.79,0,0,1,2.49,8.45.34.34,0,0,0,.16.31,23.23,23.23,0,0,1-2.15,4.58,34.17,34.17,0,0,1-6.64,3.26c-2.93,1.08-6.23,2.29-9.37,1.56a.71.71,0,0,0-.82-.39Zm8-51.72a.53.53,0,0,0,.46.84c2.6-.13,5.15.28,6.67,2.65,1.27,2,1.15,4.26,1.1,6.5-1.9-1.68-4-2.9-6-2.69a3,3,0,0,0-2.63,2,12.51,12.51,0,0,0-1.84-.89c-1.44-2.86.3-7.09-2.32-9.37a.25.25,0,0,0-.41.27,29.31,29.31,0,0,1,.92,6,8,8,0,0,0,.78,2.73,20.68,20.68,0,0,0-7.77-.66,12.81,12.81,0,0,1-1.11-1.94,11.56,11.56,0,0,1-.43-3.08c0-.19-.29-.35-.43-.15-1.05,1.46-.06,3.71,1.08,5.25a29.6,29.6,0,0,0-5,1,8.45,8.45,0,0,1-1.22-2.46c-.29-1.15-.18-2.4-.74-3.46a.24.24,0,0,0-.42,0,6.83,6.83,0,0,0,1.2,6.27,26.25,26.25,0,0,0-2.51,1,22,22,0,0,0-2.44,1.36c-.31-.41-.62-.8-1-1.19s-.7-.94-1.24-.91a.29.29,0,0,0-.27.3c0,.47.52.82.82,1.13s.69.72,1,1.1A20.62,20.62,0,0,0,13.09,29a6.26,6.26,0,0,1-1.63-3.55,4.77,4.77,0,0,1,3.71-4.93.78.78,0,0,0,.52-.77c-.25-2.88.7-6.14,4.35-5.82a.56.56,0,0,0,.63-.44A.6.6,0,0,0,21,13c.27-5.55,4.69-9.84,10.31-6.58a.73.73,0,0,0,1-.31c1.2-2,2.71-4.2,5.17-4.74C41.72.43,43.11,4,44.41,6.94Zm9,1.64a.58.58,0,0,0,.61.55c4.06-.42,6.41,3.23,5.3,6.9a.32.32,0,0,0,.09.38,8.66,8.66,0,0,1,2.19,1.64,5.93,5.93,0,0,1,.87,3.27,7.92,7.92,0,0,1-2.16,5.87,30.67,30.67,0,0,0-2.51-4.26,38.29,38.29,0,0,0-4.35-5.21c.67-3,.46-6.62-1.71-9a7,7,0,0,0-6.72-2.14,12.73,12.73,0,0,0-1.52-3.32.6.6,0,0,0,.15-.09C48.24-.84,52.73,4,53.45,8.58Zm6,43a13.8,13.8,0,0,0,4.18-9.16c.38.21.77.41,1.17.59s1,.52,1.41.36a.33.33,0,0,0,.2-.41c-.11-.48-.78-.77-1.19-1a7.05,7.05,0,0,0-1.53-.51,24,24,0,0,0-.29-4.69,4.77,4.77,0,0,0,1.31.06,2.68,2.68,0,0,0,1.51-.28.28.28,0,0,0,0-.45,2.15,2.15,0,0,0-1.51-.37A3.12,3.12,0,0,0,63.3,36a33.58,33.58,0,0,0-1.73-6c.93-.25,1.79-.7,2.74-.89a7.52,7.52,0,0,0,2.55-.62.22.22,0,0,0,0-.35c-1.45-1-4.32-.12-5.68,1-.14-.33-.28-.65-.43-1,2.28-1.67,3.18-5,3-7.71-.09-2-1.64-5.1-4-4.63A5,5,0,0,0,59,9.53,6.8,6.8,0,0,0,55.8,8c-1.62-.45-1.18-.49-1.74-2.19a8.56,8.56,0,0,0-2.41-3.53c2,.17,4-.59,5.85.86S60.36,6.72,61.2,9a.47.47,0,0,0,.07.12.46.46,0,0,0,.42.41c4.32.52,6.65,3.81,6.36,8a.39.39,0,0,0,.22.33c5.43,2,5.45,7.29,2.37,11.4a.3.3,0,0,0,.35.47.08.08,0,0,0,0,0c1.9,2.44,6.8,8.62.8,10.18a.5.5,0,0,0-.17.85c3.21,3.25.52,7.6-3.19,7.91a.56.56,0,0,0-.52.59C67.64,54.59,62.27,52.86,59.48,51.54ZM6.14,38.21a.67.67,0,0,0,.52-1c-1.4-2.58-.52-5,2.22-5.87a7,7,0,0,1,3.5,0c-.16.62-.31,1.25-.43,1.89a26.34,26.34,0,0,0,.65,12.13,8.63,8.63,0,0,1-1.78.81,7.08,7.08,0,0,0-1.8.67.24.24,0,0,0,0,.41c1.25.81,2.87,0,3.84-1A18.42,18.42,0,0,0,17.8,54a25.53,25.53,0,0,0,11.78,5.86,8.36,8.36,0,0,0-.41,5.62.2.2,0,0,0,.39,0c.29-1.8.55-3.64,1-5.42a19.25,19.25,0,0,0,5.4.13,9.94,9.94,0,0,0,2.53.57.11.11,0,0,0,0,.06,31.42,31.42,0,0,0-.4,4.11c0,1.18-.23,2.54.54,3.53a.3.3,0,0,0,.51,0c.59-1,.34-2.18.31-3.29,0-1.42,0-2.83,0-4.24a.43.43,0,0,0,0-.11,17.78,17.78,0,0,0,6.09-1.2c.2,1.63.49,3.72,1.64,4.86a.28.28,0,0,0,.46-.23,8.63,8.63,0,0,0-.67-2.47q-.39-1.22-.66-2.46c1.47-.57,2.9-1.25,4.24-1.89a33.68,33.68,0,0,0,6.68-4.06.14.14,0,0,0,.1,0l.14-.09c.71,3.55,2.06,8-3.78,8.2a.68.68,0,0,0-.62.52c-.57,4.53-3.64,6.39-8,6.41a.42.42,0,0,0-.43.56l0,0a18.9,18.9,0,0,1-3,5.31c-2.71,2.87-7.52,3.82-10,0a.39.39,0,0,0-.53-.11c-3,1.82-7.5,1.55-8.88-2.09a.57.57,0,0,0-1-.1c-3.69.67-7.46-.82-7.76-5.13a.7.7,0,0,0-.56-.65c-5.12-.59-5-5.82-3.62-9.46a.7.7,0,0,0-.47-1c-4-.56-6.79-5.55-4.48-9a.48.48,0,0,0-.35-.73,6,6,0,0,1-2.26-3C.75,38.8,3.81,38.24,6.14,38.21Z"/><path class="cls-1" d="M22,59.6c.09-.52,1-.47,1,.08a7.88,7.88,0,0,1-.82,3.23c-.4.76-1.08,1.9-2,2a.27.27,0,0,1-.27-.25c.06-.81.75-1.46,1.13-2.15A8.85,8.85,0,0,0,22,59.6Z"/><path class="cls-1" d="M13.45,56.86a13.63,13.63,0,0,0,1.84-2.31.5.5,0,0,1,.89.46,10.54,10.54,0,0,1-1.78,2.7c-.61.64-1.48,1.55-2.43,1.54a.33.33,0,0,1-.31-.47C12,58,12.88,57.45,13.45,56.86Z"/></g></g></svg>