<?xml version="1.0" encoding="utf-8"?>
<!-- Generator: Adobe Illustrator 24.0.1, SVG Export Plug-In . SVG Version: 6.00 Build 0)  -->
<svg version="1.1" id="Capa_1" xmlns="http://www.w3.org/2000/svg" xmlns:xlink="http://www.w3.org/1999/xlink" x="0px" y="0px"
	 viewBox="0 0 24 68" style="enable-background:new 0 0 24 68;" xml:space="preserve">
<style type="text/css">
	.st0{fill:#FFFFFF;}
</style>
<title>Recurso 1</title>
<g id="Capa_2_1_">
	<g id="Capa_1-2">
		<path class="st0" d="M6.2,24.2c0.5-1.3,0.9-2.7,1.4-4c0.1-0.2,0.1-0.5,0.2-0.7c0.1-0.6,0.5-0.8,1.1-0.8c0.9,0.1,1.9,0,2.8,0
			c0.5,0,0.8,0.2,0.8,0.8c0,1.9,0,3.7,0,5.6c0,2.4-0.1,4.8-0.1,7.2c0,0.8,0.1,1.5,0.1,2.3c0,0.8-0.2,1.1-1,1.1c-0.7,0-1.3,0-2,0
			c-0.8,0-1-0.3-1-1c0-2.3,0-4.5,0.1-6.8c0-0.2,0-0.5-0.1-0.7c-0.2,0.6-0.3,1.1-0.6,1.7c-0.3,0.8-0.6,1.5-1,2.3
			c-0.1,0.2-0.5,0.6-0.6,0.6c-0.3-0.1-0.6-0.3-0.8-0.6c-0.4-1.1-0.8-2.1-1.2-3.2c-0.1-0.2-0.1-0.5-0.2-0.8c0,1.9,0,3.6,0,5.4
			c0,0.9,0,1.7,0,2.5c0,0.6-0.2,0.8-0.9,0.8c-0.8,0-1.6-0.1-2.4-0.1c-0.6,0-0.7-0.4-0.7-0.9c0-1.8,0-3.6,0-5.4c0-3.1,0-6.1,0-9.2
			c0-0.3,0-0.5,0.1-0.8c0.1-0.4,0.4-0.6,0.8-0.6c0.9,0,1.7,0,2.6,0c0.5,0,0.8,0.2,0.9,0.7c0.5,1.6,1.1,3.2,1.6,4.8L6.2,24.2z"/>
		<path class="st0" d="M4.7,49.5c0,1.1,0,2.2,0,3.2c0,0.9-0.2,1-1,1c-0.8,0-1.6,0-2.3,0c-0.8,0-1.2-0.3-1.1-1.1c0-3,0.1-6,0.1-9
			c0-1.8,0-3.6-0.1-5.3c0-1.3,0.5-1.7,2.1-1.6c1.1,0.1,2.1,0.1,3.2,0c3.5-0.3,5.5,1.1,5.9,4.4c0.2,1.3,0,2.6-0.2,3.9
			c-0.1,1-0.7,1.9-1.5,2.6c-0.4,0.3-0.4,0.6-0.2,1c0.7,1.3,1.3,2.5,1.9,3.8c0.1,0.3,0.3,0.8,0.1,1c-0.1,0.2-0.6,0.2-1,0.2
			c-0.8,0.1-1.6,0-2.4,0.1c-0.6,0-1-0.1-1.3-0.8c-0.4-1-0.9-2-1.4-3c-0.1-0.2-0.3-0.4-0.4-0.5c0,0,0,0-0.1,0
			C4.8,49.3,4.7,49.4,4.7,49.5z M6.6,42.9L6.6,42.9c-0.1-0.5,0-1.1-0.3-1.5c-0.2-0.3-0.6-0.5-1-0.5c-0.2,0-0.7,0.4-0.7,0.6
			c-0.1,0.7-0.2,1.5-0.1,2.2c0,0.5,0.4,1,1,1c0,0,0,0,0,0c0.6,0,1-0.4,1.1-1C6.7,43.4,6.7,43.1,6.6,42.9z"/>
		<path class="st0" d="M10.9,13.5c0.1,0,0.1,0.1,0.2,0.1c0.9,0.2,0.9,0.2,0.9,1.2c0,0.6,0,1.3,0,1.9c0,0.4-0.2,0.6-0.6,0.5
			c-0.7-0.1-1.3-0.3-2-0.5c-0.2-0.1-0.5-0.1-0.7,0C7,17.9,3.6,17.7,2,16.2c-1-0.9-1.5-2.2-1.7-3.5c-0.4-2.8-0.3-5.6,0-8.4
			c0.1-1.2,0.7-2.2,1.4-3.1C2.4,0.3,3.5,0.1,4.5,0C5.6,0,6.7,0,7.7,0.2c2.1,0.4,3,2.1,3.3,4c0.3,2,0.2,3.9,0.2,5.9
			C11.3,11.2,11.1,12.3,10.9,13.5z M6.8,11.9V8.3c0-0.9,0-1.8,0-2.7c0-0.8-0.5-1.4-1.1-1.4c-0.5,0-1,0.4-1,1.2
			C4.6,7.6,4.6,9.8,4.6,12c0,0.2,0.1,0.5,0.2,0.7c0.2,0.3,0.5,0.4,0.7,0.7l0.1-0.1c-0.5-0.8-0.5-1.1,0-1.6C6,11.2,6.4,11.4,6.8,11.9
			z"/>
		<path class="st0" d="M12.8,7.3c0-1.9-0.1-3.8-0.1-5.7c0-1.1,0.3-1.4,1.4-1.3c0.7,0,1.4,0.1,2.2,0.1c0.9,0,1,0.2,1,1.1
			c0,3.4-0.1,6.7-0.1,10.1c0,0.3,0,0.5,0,0.8c0.1,0.5,0.3,1,0.9,1c0.6,0,1-0.2,1.1-0.9c0.1-1.6,0.1-3.3,0.1-4.9c0-1.4,0-2.8,0-4.3
			c0-0.7,0-1.4,0-2.1c0-0.6,0.4-0.9,1-0.9c0.8,0,1.7,0,2.5,0c0.7,0,1.1,0.3,1,1.1c0,3.8-0.1,7.6-0.1,11.4c0,3-2,4.5-4.4,4.7
			c-1.6,0.2-3.1,0-4.6-0.8c-1.6-0.8-1.9-2.2-1.9-3.7c0-1,0.1-1.9,0.1-2.9C12.8,9.1,12.7,8.2,12.8,7.3L12.8,7.3z"/>
		<path class="st0" d="M18,36.7c0.7,0,1.4,0,2.1,0c0.9,0,1.2,0.2,1.4,1.1c0.4,2.3,0.8,4.6,1.2,6.9c0.4,2.5,0.8,5,1.2,7.5
			c0.2,1-0.2,1.5-1.3,1.5c-0.8,0-1.5,0-2.3,0c-0.6,0-0.9-0.3-1-0.9c-0.1-0.5-0.1-1-0.1-1.5c0-0.4-0.3-0.5-0.6-0.5c0,0,0,0-0.1,0
			c-2.4-0.1-1.8-0.1-2.1,1.8c-0.1,0.7-0.3,1-1,1c-0.9,0-1.7,0-2.6,0c-0.8,0-1-0.3-0.9-1c0.5-3.3,1.1-6.6,1.6-9.8
			c0.3-1.6,0.5-3.2,0.9-4.8c0.3-1.2,0.5-1.3,1.7-1.3C16.8,36.7,17.4,36.7,18,36.7L18,36.7z M17.9,41.8L17.9,41.8
			c-0.1,0-0.2,0.1-0.2,0.1c-0.2,1.4-0.5,2.7-0.7,4.1c-0.1,0.4,0.2,0.7,0.7,0.7c0.6,0,0.9-0.3,0.8-1.1c-0.1-1.1-0.3-2.2-0.5-3.3
			c0-0.1-0.1-0.3-0.1-0.4C18.1,41.8,18,41.8,17.9,41.8z"/>
		<path class="st0" d="M19,18.6c0.5,0,1,0,1.5,0c0.5,0,0.8,0.2,0.8,0.7c0.7,3.8,1.3,7.6,2,11.5c0.2,1.2,0.4,2.5,0.7,3.7
			c0.1,0.8-0.1,1-0.8,1c-0.7,0-1.4,0-2.1,0.1c-0.9,0.1-1.1-0.2-1.1-1c0-0.4-0.1-0.8-0.1-1.2c-0.1-0.6-0.4-0.7-1-0.7
			c-0.5,0-0.8,0.3-0.8,0.8c0,0.4-0.1,0.8-0.1,1.3c0,0.5-0.3,0.7-0.8,0.8c-0.9,0-1.9,0-2.8,0c-0.4,0-0.7-0.2-0.6-0.6
			c0.1-0.9,0.3-1.9,0.5-2.8c0.5-2.8,1-5.5,1.5-8.3c0.3-1.5,0.6-3,0.9-4.5c0.1-0.5,0.3-0.7,0.9-0.7C18,18.6,18.5,18.6,19,18.6z
			 M18.9,25.1c0-0.1-0.1,0-0.2,0c-0.2,1.1-0.4,2.2-0.5,3.4c0,0.1,0.3,0.4,0.6,0.4c0.3,0.1,0.6-0.1,0.6-0.5
			C19.3,27.3,19.1,26.2,18.9,25.1z"/>
		<path class="st0" d="M19.8,55.6c0.4,0,0.7,0,1.1,0c1.2,0,2,0.6,2.4,1.6c0.5,1.2,0.6,2.5,0.1,3.8c-0.5,1.3-1.4,2.1-2.8,2.1
			c-0.7,0-1.3,0-2,0c-0.5,0-0.7-0.3-0.7-0.8c0-1.9,0-3.9,0-5.8c0-0.9,0.1-1,1-1C19.2,55.6,19.5,55.6,19.8,55.6L19.8,55.6z
			 M21.3,59.9c0.1-0.3,0.1-0.7,0-1c-0.1-0.4-0.1-0.6-0.2-1c-0.1-0.1-0.2-0.2-0.3-0.2c-0.2-0.1-0.4,0-0.5,0.2l0,0
			c0,0.1,0,0.1-0.1,0.2c0,0.9,0,1.8,0,2.7c0,0.1,0,0.1,0.1,0.2c0.1,0.2,0.3,0.3,0.5,0.2c0,0,0,0,0,0c0.1,0,0.2-0.1,0.2-0.2
			C21.2,60.6,21.2,60.3,21.3,59.9L21.3,59.9z"/>
		<path class="st0" d="M17,59.2c-0.1,0.8-0.1,1.6-0.2,2.4c0,0.2-0.1,0.4-0.3,0.6c-0.8,1.1-2,1.1-3.2,0.9c-1.1-0.2-1.8-0.8-1.9-1.8
			c-0.1-1.3-0.1-2.6,0-3.9c0.1-0.9,0.8-1.7,1.8-1.8c0.5-0.1,0.9-0.1,1.4-0.1c1.4,0.1,2.3,1,2.5,2.5C17.1,58.4,17,58.8,17,59.2
			C17.1,59.2,17,59.2,17,59.2z M13.6,59.4L13.6,59.4c0,0.5-0.1,0.9,0,1.4c0,0.1,0.2,0.3,0.3,0.4c0.1,0.1,0.3,0.1,0.4,0
			c0.1-0.1,0.3-0.2,0.3-0.4c0.1-0.9,0.1-1.9,0-2.8c0-0.1-0.1-0.3-0.3-0.4c-0.1-0.1-0.3-0.1-0.4,0c-0.1,0.1-0.2,0.3-0.3,0.4
			C13.6,58.5,13.6,58.9,13.6,59.4z"/>
		<path class="st0" d="M10.5,59.2c-0.1,0.6-0.1,1.2-0.1,1.8c-0.2,1.9-1.6,2.4-3.1,2.2c-1.7-0.2-2.4-0.9-2.5-2.8c0-1,0-2,0.1-2.9
			c0.1-1.1,0.8-1.9,1.9-2c0.7-0.1,1.4-0.1,2,0.1c1.2,0.3,1.7,1.1,1.8,2.4C10.6,58.5,10.5,58.9,10.5,59.2L10.5,59.2z M7.1,59.4
			c0,0.5-0.1,0.9,0,1.4c0.1,0.1,0.1,0.3,0.3,0.3c0.2,0.1,0.4,0.1,0.5,0C8,61,8.1,60.9,8.1,60.8c0.1-0.9,0.1-1.8,0-2.7
			c-0.1-0.3-0.2-0.5-0.5-0.6c-0.4-0.1-0.5,0.3-0.5,0.6C7.1,58.5,7.1,58.9,7.1,59.4L7.1,59.4z"/>
		<path class="st0" d="M2.4,55.6c0.5,0,1,0,1.5,0c0.4,0,0.5,0.1,0.5,0.5c0,0.1,0,0.1,0,0.2c0,1.2,0,1.2-1.2,1.2
			c-0.3,0-0.8-0.2-0.8,0.4c0,0.4,0.1,0.6,0.5,0.6c0.1,0,0.2,0,0.3,0c1,0.1,1,0.1,1,1.1c0,0.6-0.3,0.8-0.9,0.8
			c-0.9-0.1-0.9,0-0.9,0.9c0,0.5,0,0.9,0,1.4c0,0.4-0.2,0.5-0.5,0.6H1.9c-1.6,0-1.6,0-1.6-1.5c0-1.8,0-3.6,0-5.3
			c0-0.5,0.2-0.8,0.7-0.7C1.4,55.6,1.9,55.6,2.4,55.6L2.4,55.6z"/>
		<path class="st0" d="M1.1,64.7h22c0.5,0,0.9,0.4,0.9,0.9v1.4c0,0.5-0.4,0.9-0.9,0.9h-22c-0.5,0-0.9-0.4-0.9-0.9v-1.4
			C0.1,65.2,0.5,64.7,1.1,64.7z"/>
	</g>
</g>
</svg>
