<svg xmlns="http://www.w3.org/2000/svg" viewBox="0 0 59.24 66.64"><defs><style>.cls-1{fill:#325f29;}</style></defs><title>Recurso 3</title><g id="Capa_2" data-name="Capa 2"><g id="Capa_1-2" data-name="Capa 1"><path class="cls-1" d="M9.84,37.54c-1,9.23,9.38,14.19,17,10.45A16.58,16.58,0,0,0,34.9,38a9.86,9.86,0,0,0,.55-4.52c-.5-3.88-2.78-8.39-6.62-9.81C20.45,20.53,10.74,29.54,9.84,37.54ZM29.5,27a10.62,10.62,0,0,1,3.92,7.92,12.6,12.6,0,0,1-.34,2.6c-.66,2.36-2.17,4.24-3.58,6.22a13.61,13.61,0,0,1-2.62,2c-6.41,3.64-15-.38-14.7-8.18C12.44,30.55,23.09,22.17,29.5,27Z"/><path class="cls-1" d="M15.65,35.89c0,.08-.16.06-.18,0a3.71,3.71,0,0,1,.2-2.66c.34-.7,1-1.79,1.84-1.75a.4.4,0,0,1,.4.38c0,.74-.7,1.24-1.06,1.85A18.11,18.11,0,0,0,15.65,35.89Z"/><path class="cls-1" d="M22.28,28.41c.5,0,1.22,0,1.47.51a.28.28,0,0,1-.1.39,2.63,2.63,0,0,1-1.22.08,2.8,2.8,0,0,0-1.33.31c-.52.26-1-.5-.47-.79A3.87,3.87,0,0,1,22.28,28.41Z"/><path class="cls-1" d="M1.85,29C-.1,33.62-.86,40.09,1.33,45a1.15,1.15,0,0,0,.09,1c4.21,7.55,10.11,15.16,18.52,18.17a21.05,21.05,0,0,0,4.73,1.1c11.76,6,23.69-8.44,26.44-18.54a47.85,47.85,0,0,0,1.45-10.45,27.5,27.5,0,0,1,.82-7c.7-2.21,2.24-4,3.35-6,2.69-4.81,3.68-10.86.65-15.72a.42.42,0,0,0-.07-.25c-3.59-5.8-9.57-9.83-15.93-5.39C37.3,4.73,34.52,8.8,29.94,11.08c-3.76,1.87-8,2.48-12,3.57C10.14,16.77,5,21.52,1.85,29Zm35,33.18a17.06,17.06,0,0,0,2.93-2.67c6.66-7.62,6.78-17.83,9.58-27,1.87-6.18,7.22-12,8.38-18.4A15.35,15.35,0,0,1,57.16,18c-.8,2.95-2.59,5.48-3.78,8.27-2,4.69-2.13,9.45-2.82,14.42C49.31,49.57,44.35,58.47,36.81,62.21ZM5.59,26.35c3.61-6.58,8.78-8.86,15.7-10.63C26.37,14.43,31,13,35.12,9.61c3-2.56,5.9-6.2,9.76-7.48C49.16.7,53.48,4,56.11,7.18a.13.13,0,0,0,0,.08c3.7,8-5.25,16.31-7.74,23.42-2.78,7.93-3,17-7.35,24.29-4.62,7.82-13.19,10.49-21.47,6.87-7-3.08-11.3-9.51-15.25-15.79a18.35,18.35,0,0,1-2.07-8.56A25.11,25.11,0,0,1,5.59,26.35Z"/></g></g></svg>