<svg xmlns="http://www.w3.org/2000/svg" viewBox="0 0 34.93 67.79"><defs><style>.cls-1{fill:#325f29;}</style></defs><title>Recurso 2</title><g id="Capa_2" data-name="Capa 2"><g id="Capa_1-2" data-name="Capa 1"><path class="cls-1" d="M30.73,45.49c-.92-5.19,4-17.25-2.64-19.75.36-.31.73-.62,1.12-.91.85-.62,3.12-1.47,4.2-2.58a.32.32,0,0,0,.52-.11c2.23-4.69.59-9.64-3.32-12.83s-9.27-4.64-12-9a.61.61,0,0,0-1.15.22c-.42,4.87-.17,10.65,2.74,14.82,2.39,3.41,7.38,5.6,11.39,6.89-.23.12-.47.24-.69.37a21.9,21.9,0,0,0-2.89,2c-.33.27-.66.56-1,.86a9.06,9.06,0,0,0-1.8-.16.47.47,0,0,0-.32.12c-3-.19-5.68,1.74-7.53,4.17-1.2,1.57-2,3.45-3.32,4.93-1.72,1.92-4.13,2.89-6.3,4.19A15.68,15.68,0,0,0,2,59.83c4.41,7.76,14.45,10.06,22.17,5.94A17,17,0,0,0,31.78,57C33.25,52.8,31.45,49.53,30.73,45.49Zm-9-30.8c-2.49-3.52-3.21-7.91-3.12-12.14a11.12,11.12,0,0,0,2.84,3.16A61.13,61.13,0,0,0,27,9.1c4.24,2.51,6.64,5.48,6.63,9.83a8.39,8.39,0,0,0-1.39-2.48c-1-1.28-3.06-3.72-4.89-3.46a.32.32,0,0,0-.23.45c.3.87,1.32,1.37,2,1.91A14.35,14.35,0,0,1,31,17.22a9.46,9.46,0,0,1,2.12,3.86c-.19.18-.37.38-.57.55C29,19.31,24.27,18.32,21.71,14.69Zm4.68,47.86c-6.34,5.21-15.65,5.12-21.33-1A14.08,14.08,0,0,1,7.44,40.61C11,38,14.45,36.9,16.91,33c2.22-3.54,4.53-6.22,8.74-6.57l.3.1a10.19,10.19,0,0,0-2.22,3.36c-.1.29.28.59.52.36.88-.88,1.46-2.07,2.3-3,.11-.11.23-.21.33-.32,5.76,2.84,2.14,11,2.09,16.19,0,3.3,1.73,6.13,2.05,9.35C31.41,56.3,29.32,60.14,26.39,62.55Z"/><path class="cls-1" d="M9.54,43.43c-.36-.16.28.15-.21-.09L9,43.17H9A.65.65,0,0,0,8.8,43l-.15-.12a.9.9,0,0,0-.18-.27.17.17,0,0,1,0,.1.43.43,0,0,0-.05-.16l0,0c-.08-.1,0-.09,0,0a3.37,3.37,0,0,0-.1-.34.63.63,0,0,0-1.23.25,2.89,2.89,0,0,0,.78,1.66,2.45,2.45,0,0,0,.93.62,1.15,1.15,0,0,0,1.17-.2.52.52,0,0,0,.12-.61A1.06,1.06,0,0,0,9.54,43.43Zm-.9-.51,0,0C8.48,42.79,8.6,42.86,8.64,42.92Z"/><path class="cls-1" d="M8.42,42.59l.05.06a.27.27,0,0,0-.07-.13.14.14,0,0,1,0,.07Z"/><path class="cls-1" d="M6.47,45.86l0-.07-.13-.23c-.07-.12-.12-.25-.18-.38-.24-.53-1.17-.25-1,.33s.5,1.62,1.2,1.87a.55.55,0,0,0,.72-.61A3,3,0,0,0,6.47,45.86Z"/><path class="cls-1" d="M25.35,60.81a5.72,5.72,0,0,1-.57.11l-.13,0h0a1.45,1.45,0,0,0-.36,0,.6.6,0,0,0-.09,1.19,3.14,3.14,0,0,0,1.33,0C26,62,26.75,61.57,26.59,61S25.76,60.7,25.35,60.81Z"/><path class="cls-1" d="M27.94,58.26a.77.77,0,0,0-.26,0l-.11,0a1,1,0,0,0-.27.09l-.13.07h0c-.09,0-.19.07-.28.12h0l-.09,0-.43.07c-.64.08-.43,1,.2,1a2.51,2.51,0,0,0,1-.26,1,1,0,0,0,.44-.44h0s.09-.15.09-.17a.48.48,0,0,0,0-.29A.29.29,0,0,0,27.94,58.26Z"/><path class="cls-1" d="M29.2,53.77c-.13.07-.25.15-.37.23a3.55,3.55,0,0,1-.44.21l-.14.06-.25.07a.59.59,0,0,0,.22,1.15c.66-.09,2.26-.4,2.05-1.36C30.16,53.61,29.6,53.59,29.2,53.77Z"/></g></g></svg>